<?xml version="1.0" standalone="no"?>
<!DOCTYPE svg PUBLIC "-//W3C//DTD SVG 20010904//EN"
 "http://www.w3.org/TR/2001/REC-SVG-20010904/DTD/svg10.dtd">
<svg version="1.0" xmlns="http://www.w3.org/2000/svg"
 width="300.000000pt" height="182.000000pt" viewBox="0 0 300.000000 182.000000"
 preserveAspectRatio="xMidYMid meet">
<metadata>
Created by potrace 1.10, written by Peter Selinger 2001-2011
</metadata>
<g transform="translate(0.000000,182.000000) scale(0.100000,-0.100000)"
fill="#000000" stroke="none">
<path d="M620 1750 c-17 -17 -32 -39 -33 -50 -1 -11 -6 -21 -12 -24 -6 -2 -12
-25 -14 -52 -1 -26 -4 -51 -7 -55 -7 -11 37 -50 69 -61 22 -8 25 -13 15 -19
-19 -12 -36 -11 -18 1 12 8 9 10 -11 7 -14 -1 -37 -10 -51 -19 -25 -16 -26
-16 -31 2 -3 11 1 24 7 29 16 13 12 179 -4 195 -6 6 -28 12 -48 13 -20 1 -56
4 -80 5 -23 2 -42 -1 -42 -5 0 -5 -6 -7 -12 -4 -7 2 -12 12 -10 22 2 9 -1 14
-6 11 -6 -3 -12 1 -15 9 -5 12 -28 14 -127 11 -78 -2 -125 -7 -133 -15 -8 -8
-11 -47 -9 -128 3 -118 11 -153 37 -153 8 0 15 -6 15 -12 0 -10 2 -10 8 -1 5
8 38 11 105 9 70 -2 100 1 108 10 9 11 14 11 26 -2 9 -8 22 -13 29 -10 8 3 14
0 14 -7 0 -8 4 -7 10 3 9 13 11 13 20 0 8 -13 10 -13 10 0 0 11 3 11 12 2 9
-9 9 -15 0 -24 -14 -14 -16 -78 -3 -78 13 0 7 -30 -8 -40 -8 -4 -11 -13 -7
-18 4 -7 18 -4 41 9 l34 20 20 -20 c12 -12 21 -26 21 -32 0 -6 -33 -44 -73
-85 -49 -50 -80 -74 -96 -74 -20 0 -23 4 -18 28 12 62 18 77 47 107 17 17 27
34 24 38 -13 12 -24 7 -25 -10 0 -15 -2 -15 -9 2 -6 14 -9 16 -11 5 -1 -8 -5
11 -9 43 -11 85 -24 93 -142 92 -53 -1 -95 2 -93 5 3 4 -7 5 -21 2 -19 -3 -22
-7 -12 -13 9 -6 7 -9 -9 -9 -36 0 -53 -49 -46 -133 3 -40 9 -73 14 -75 5 -2 9
-10 9 -18 0 -8 6 -14 13 -14 7 0 22 -7 33 -16 10 -8 13 -13 7 -9 -7 3 -13 0
-13 -7 0 -9 -3 -9 -10 2 -8 13 -10 12 -10 -3 0 -10 -4 -16 -8 -13 -5 3 -9 0
-10 -7 0 -7 -4 -30 -8 -53 -4 -29 -2 -44 8 -55 8 -8 13 -20 10 -27 -2 -7 0
-12 5 -10 4 1 19 -4 33 -12 39 -21 100 -21 131 1 36 26 63 25 56 -1 -3 -12 -1
-17 5 -14 5 3 15 -2 22 -11 9 -12 21 -16 39 -13 19 4 24 1 19 -10 -3 -10 -1
-13 6 -8 7 4 12 2 12 -3 0 -6 -5 -11 -11 -11 -5 0 -8 -4 -4 -9 5 -9 -39 -61
-51 -61 -2 0 -9 11 -14 25 -5 14 -18 28 -27 31 -47 14 -83 38 -71 46 10 6 10
8 0 8 -7 0 -25 -13 -39 -30 -14 -18 -34 -30 -48 -30 -15 0 -26 -7 -30 -20 -3
-11 -12 -20 -18 -21 -7 0 -3 -4 8 -9 17 -7 17 -9 3 -9 -10 -1 -22 -11 -29 -22
-6 -12 -7 -19 -2 -16 5 3 20 -7 33 -23 24 -29 40 -30 71 -3 9 7 18 10 22 7 9
-10 -4 -34 -19 -34 -8 0 -14 -7 -14 -15 0 -24 -22 -18 -46 12 l-22 28 5 -28
c4 -21 13 -29 34 -34 16 -3 32 -10 35 -14 3 -5 11 -9 17 -9 7 0 3 7 -7 15 -17
13 -17 15 -4 15 9 0 20 -5 23 -10 8 -14 -14 -42 -29 -37 -15 6 -48 -12 -41
-22 3 -5 -2 -12 -11 -15 -10 -4 -13 -2 -8 6 4 7 3 8 -5 4 -20 -13 -51 -84 -51
-119 0 -19 9 -55 20 -80 17 -39 27 -48 68 -63 26 -9 51 -21 55 -25 11 -9 -24
-50 -36 -42 -6 3 -7 1 -3 -5 4 -7 3 -12 -2 -12 -5 0 -21 -10 -36 -21 -26 -20
-26 -22 -10 -40 16 -18 16 -19 -2 -20 -10 0 -14 -3 -7 -5 9 -4 8 -15 -3 -45
-11 -32 -11 -43 -1 -53 15 -15 378 -16 389 -1 5 6 8 6 8 -1 0 -6 8 -10 18 -9
19 1 63 24 47 25 -5 0 -4 4 4 9 12 8 12 14 1 40 -7 17 -17 31 -22 31 -6 0 -9
39 -6 99 3 98 2 100 -24 125 -37 34 -36 65 2 79 47 18 35 27 -36 27 -62 0 -65
1 -62 23 3 20 10 22 63 25 33 2 63 8 67 15 5 8 18 6 49 -9 l42 -20 -46 -30
c-26 -16 -47 -33 -47 -37 0 -12 41 2 65 22 40 33 43 38 35 51 -4 7 -6 20 -3
27 5 12 7 12 14 2 6 -10 11 -10 22 -1 7 7 18 8 22 4 5 -4 5 1 2 10 -7 19 8 25
18 8 4 -6 10 -8 15 -5 16 10 37 -6 35 -28 -1 -12 -3 -30 -4 -40 -1 -12 -5 -16
-13 -11 -10 6 -10 5 -1 -8 7 -8 10 -17 8 -20 -3 -3 -1 -16 4 -30 l9 -24 -94 1
c-83 1 -96 -1 -113 -19 -19 -20 -19 -24 -4 -81 8 -33 16 -81 16 -107 1 -25 4
-46 7 -45 3 1 16 -5 29 -12 12 -7 32 -11 42 -8 10 3 19 1 19 -4 0 -5 -4 -9 -8
-9 -5 0 -9 -7 -9 -15 0 -19 2 -19 32 1 14 9 25 24 25 34 0 14 -7 16 -48 12
-61 -5 -68 3 -76 98 -3 41 -7 86 -8 100 l-3 25 133 0 c92 0 136 -4 140 -12 4
-6 6 -55 4 -107 l-3 -96 -50 0 c-56 0 -77 -22 -44 -46 26 -19 35 -17 35 7 0
19 4 21 30 15 22 -4 29 -2 24 6 -4 7 -3 8 4 4 7 -4 12 -16 12 -27 0 -11 7 -19
16 -19 8 0 13 -4 9 -9 -3 -6 11 -13 32 -16 21 -3 53 -13 72 -21 29 -13 33 -13
23 -1 -10 12 -8 14 11 10 13 -3 32 4 46 16 13 12 19 21 14 21 -15 0 -4 48 13
54 8 3 11 0 7 -10 -3 -7 0 -14 7 -14 8 0 9 -10 5 -31 -6 -26 -2 -35 29 -65 32
-31 39 -34 53 -22 12 9 15 9 9 1 -4 -7 -5 -13 -2 -13 11 0 46 69 46 92 0 13 6
30 12 37 11 12 9 13 -7 7 -24 -9 -14 3 16 18 12 6 21 15 20 20 -2 5 3 13 11
17 9 6 7 9 -9 9 -13 0 -23 5 -23 10 0 11 7 12 34 1 18 -7 28 -34 26 -73 -3
-66 -6 -88 -12 -88 -3 0 -4 -9 -1 -20 3 -12 8 -18 11 -15 3 2 11 0 17 -5 13
-11 186 -20 180 -10 -2 3 5 6 15 6 11 0 16 -6 13 -16 -3 -10 -1 -10 7 3 11 17
36 25 25 7 -3 -5 8 -2 25 8 28 15 30 20 24 52 -10 45 -11 125 -3 172 3 21 2
35 -2 32 -5 -3 -9 2 -9 11 0 17 -37 35 -57 28 -21 -8 -15 -25 6 -18 11 3 22 1
26 -6 4 -6 7 -60 6 -120 -2 -93 0 -109 13 -109 9 0 16 -4 16 -10 0 -6 -57 -10
-152 -9 -84 0 -147 3 -140 6 8 3 12 32 12 95 0 80 2 89 18 86 14 -3 17 -16 20
-86 2 -46 7 -82 13 -82 6 0 8 22 3 60 -6 56 -5 60 14 60 19 0 22 -7 25 -62 2
-37 3 -25 3 30 -1 87 0 93 19 90 18 -3 21 -13 26 -93 l5 -90 2 103 c2 95 3
102 22 102 19 0 20 -7 20 -99 0 -56 4 -103 10 -106 6 -4 10 34 10 108 0 130
-10 153 -53 124 -13 -8 -32 -17 -43 -19 -10 -2 -29 -14 -42 -28 -14 -14 -22
-18 -19 -10 4 12 -2 16 -25 14 -17 -1 -34 -7 -38 -13 -3 -7 -14 -9 -24 -5 -12
5 -14 10 -6 19 15 18 2 45 -22 45 -11 0 -16 4 -13 11 4 6 14 8 24 5 15 -6 15
-5 0 6 -9 7 -15 22 -13 33 3 19 2 19 -10 3 -16 -22 -26 -23 -26 -3 0 8 6 15
13 15 8 0 7 4 -3 10 -12 8 -12 10 -1 10 8 0 11 3 7 7 -4 4 -16 -3 -26 -17 -12
-15 -20 -19 -20 -11 0 8 8 24 18 35 16 20 16 20 0 7 -12 -9 -18 -10 -18 -2 0
14 -67 14 -76 0 -4 -8 -9 -7 -16 2 -8 11 -9 10 -4 -3 3 -10 0 -18 -6 -18 -7 0
-6 -5 2 -15 7 -9 10 -18 6 -22 -3 -4 -13 2 -22 13 -8 10 -13 13 -9 7 3 -7 1
-13 -5 -13 -6 0 -8 -10 -4 -27 5 -23 4 -26 -7 -16 -17 17 -29 16 -29 -1 0 -8
9 -18 20 -21 11 -3 20 -11 20 -16 0 -6 -9 -7 -20 -4 -16 5 -20 2 -20 -14 0
-12 -3 -22 -7 -22 -48 -7 -69 -6 -89 8 -13 8 -24 12 -24 8 0 -4 -8 -1 -17 6
-9 8 -14 9 -10 3 4 -7 -2 -14 -13 -17 -11 -3 -18 -1 -15 3 3 5 -1 11 -7 13
-10 4 -10 6 0 6 7 1 10 6 6 12 -12 20 -7 131 7 140 7 4 17 5 21 3 4 -3 8 0 8
6 0 6 5 8 12 4 6 -4 8 -3 5 3 -4 6 3 13 14 16 15 4 20 11 16 21 -4 9 -2 16 3
16 5 0 11 -8 14 -18 5 -14 17 -17 66 -17 39 0 64 5 74 15 18 19 33 86 17 76
-6 -4 -11 0 -11 9 0 9 4 13 10 10 7 -4 7 3 0 20 -6 15 -10 37 -10 50 0 30 -7
34 -63 40 -34 3 -51 0 -67 -13 -25 -20 -52 -89 -39 -98 14 -8 11 -50 -5 -63
-12 -10 -13 -9 -9 7 2 11 -1 23 -8 27 -8 6 -10 4 -4 -5 5 -9 4 -11 -4 -6 -6 4
-9 12 -6 17 4 5 -1 16 -9 25 -19 18 -21 34 -5 34 7 0 9 10 7 25 -3 14 -1 22 5
18 5 -3 7 0 5 8 -3 8 -1 23 5 34 5 11 6 17 2 13 -5 -5 -14 1 -22 12 -8 11 -25
20 -39 20 -13 0 -24 6 -24 13 0 8 -4 7 -10 -3 -7 -11 -10 -12 -10 -2 0 7 7 20
15 29 14 14 14 17 1 32 -11 12 -12 21 -4 35 9 16 8 18 -5 13 -11 -4 -14 -2
-11 7 3 8 -7 18 -26 26 -17 7 -28 15 -26 18 3 2 0 10 -7 18 -29 32 -33 40 -29
52 2 7 16 19 31 27 27 13 27 16 24 84 -3 39 0 79 6 90 8 13 8 22 1 26 -6 4 -7
12 -4 18 4 7 4 9 -1 5 -4 -4 -26 5 -49 21 -22 15 -48 31 -56 34 -10 4 -11 6
-2 6 7 1 10 6 6 12 -4 7 -1 10 7 7 8 -3 29 1 48 8 19 8 36 12 39 9 3 -3 16 2
28 10 21 14 23 14 17 -2 -5 -12 -3 -14 8 -8 12 8 12 6 0 -8 -7 -9 -10 -17 -5
-17 5 0 2 -5 -6 -10 -8 -5 -10 -10 -5 -10 15 0 16 -40 2 -40 -7 0 -6 -4 3 -10
8 -5 11 -12 7 -16 -3 -4 8 -14 26 -23 21 -11 35 -13 39 -6 5 6 8 5 8 -4 0 -11
3 -11 16 -1 31 27 37 50 17 73 -10 11 -12 17 -4 12 10 -5 9 -1 -2 16 -13 20
-14 27 -2 42 14 20 10 51 -6 41 -5 -3 -9 0 -9 5 0 6 -7 11 -15 11 -8 0 -15 8
-15 18 0 10 -5 23 -12 30 -16 16 25 30 85 30 25 0 50 3 56 6 12 8 19 -13 15
-49 -2 -21 -1 -26 6 -15 8 12 12 11 30 -8 41 -44 127 -12 100 38 -9 17 -8 26
4 45 13 19 13 25 2 34 -16 14 -79 23 -71 11 3 -4 -7 -11 -21 -14 -13 -4 -29
-16 -33 -29 -7 -19 -9 -19 -13 11 -2 18 0 32 6 32 18 0 -55 54 -75 55 -24 2
-35 -13 -20 -28 8 -8 11 -8 11 1 0 17 18 15 46 -7 l24 -19 -21 -26 c-21 -26
-57 -38 -43 -13 6 10 4 10 -7 0 -7 -7 -19 -13 -26 -13 -10 0 -10 6 3 25 15 23
15 25 0 31 -10 4 -15 12 -12 20 4 10 -10 12 -61 8 -66 -4 -94 -16 -90 -37 1
-6 -9 -12 -23 -13 l-24 -1 22 17 c11 10 18 20 15 24 -4 3 -1 6 5 6 13 0 12 40
-2 60 -9 12 -8 13 4 4 17 -11 139 -12 158 0 7 4 12 2 12 -3 0 -6 7 -11 16 -11
9 0 12 5 8 12 -5 8 -2 9 10 5 10 -4 15 -3 11 3 -3 6 1 13 9 16 12 5 13 10 5
25 -5 11 -7 25 -3 32 4 6 -2 3 -13 -8 -14 -14 -17 -24 -11 -32 7 -9 5 -15 -8
-20 -10 -4 -19 -2 -22 5 -2 6 -11 8 -20 5 -14 -6 -15 -4 -5 8 9 12 10 18 1 27
-8 8 -7 13 7 18 11 5 20 3 23 -4 4 -13 22 -6 22 9 0 5 -11 9 -25 9 -14 0 -25
4 -25 10 0 5 8 7 18 4 14 -5 14 -4 -2 6 -14 10 -20 10 -26 0 -6 -9 -13 -9 -28
-1 -15 8 -23 8 -28 -1 -5 -7 -3 -8 7 -3 8 5 11 4 6 0 -9 -11 -48 -14 -42 -4 3
4 -4 9 -15 12 -22 6 -50 -21 -50 -48 0 -15 2 -15 16 -4 20 16 55 20 72 7 8 -7
12 -7 12 1 0 17 37 13 44 -5 3 -8 1 -24 -4 -35 -11 -20 -40 -26 -40 -8 0 8 -5
8 -15 -1 -8 -7 -22 -10 -30 -6 -8 3 -15 1 -15 -4 0 -6 -5 -10 -11 -10 -7 0 -9
9 -6 21 4 14 1 19 -7 16 -18 -7 -33 23 -31 61 1 17 0 30 -3 27 -3 -3 -11 4
-19 15 -21 30 -66 26 -103 -10z m-308 -14 c4 -6 8 -64 8 -128 l0 -117 -32 -3
c-18 -2 -73 -1 -123 2 l-90 5 -5 118 c-3 64 -4 121 -2 126 4 13 236 10 244 -3z
m401 8 c13 -5 13 -9 -1 -34 -16 -27 -15 -29 11 -67 29 -42 35 -84 15 -100 -15
-12 -117 -11 -135 0 -20 13 -15 61 9 93 12 16 15 23 8 17 -18 -17 -40 -16 -40
1 0 7 14 16 30 20 27 5 44 36 20 36 -14 0 -12 27 3 33 17 8 63 8 80 1z m-195
-135 c3 -84 2 -88 -24 -108 -22 -17 -38 -21 -76 -18 -27 3 -52 7 -55 11 -3 3
-8 51 -11 106 l-5 101 84 -3 84 -3 3 -86z m373 -89 c10 -6 19 -14 19 -18 0
-13 -41 -33 -53 -25 -7 4 -16 8 -22 9 -5 0 -16 2 -22 2 -28 4 -12 31 20 35 17
2 33 5 35 5 2 1 12 -3 23 -8z m277 -22 c-3 -7 -14 -14 -26 -16 -19 -3 -20 -6
-11 -23 9 -17 7 -21 -11 -26 -16 -4 -18 -8 -9 -14 7 -4 21 -3 31 2 14 7 18 6
18 -6 0 -11 -10 -15 -35 -15 -19 0 -35 5 -35 10 0 6 -6 10 -14 10 -22 0 -28
30 -8 37 9 4 23 15 30 24 10 15 24 21 65 28 5 0 7 -5 5 -11z m-368 -41 c42
-26 55 -39 55 -57 0 -20 -8 -26 -44 -37 -24 -7 -52 -15 -62 -18 -15 -5 -19 -1
-19 18 0 26 -19 46 -67 71 -52 26 -62 18 -14 -11 39 -23 42 -27 25 -34 -33
-13 -71 -10 -103 9 -17 9 -31 20 -31 25 0 9 -34 9 -43 0 -4 -3 12 -19 35 -35
38 -25 49 -28 93 -22 28 3 56 11 63 17 15 12 25 4 29 -23 2 -15 -7 -22 -49
-35 -71 -21 -82 -20 -149 17 -49 27 -59 37 -59 59 0 26 4 28 98 49 53 11 111
25 127 29 48 14 57 13 115 -22z m-471 -66 c19 -12 23 -158 4 -188 -12 -21 -21
-23 -91 -23 -88 1 -151 13 -163 32 -15 23 -10 142 7 166 14 20 23 22 122 22
59 0 113 -4 121 -9z m601 -51 c0 -5 -9 -10 -20 -10 -15 0 -20 -7 -20 -25 0
-16 6 -25 15 -25 8 0 15 -4 15 -10 0 -5 -4 -10 -10 -10 -5 0 -10 -7 -10 -16 0
-12 6 -15 21 -11 13 3 19 1 16 -6 -4 -15 -77 -22 -77 -8 0 5 5 13 10 16 12 7
14 26 3 23 -12 -4 -15 5 -7 25 3 10 4 21 0 24 -10 10 25 43 46 43 10 0 18 -4
18 -10z m-225 -101 c17 -11 40 -24 52 -29 18 -8 22 -18 25 -72 6 -111 6 -110
-79 -147 l-77 -33 -58 28 -58 28 0 95 0 96 73 27 c88 33 85 32 122 7z m-219
-109 c1 -33 -3 -47 -10 -42 -6 3 -15 7 -21 8 -5 1 -19 6 -29 10 -15 6 -17 4
-11 -6 5 -9 4 -11 -4 -6 -6 4 -18 0 -27 -9 -9 -9 -23 -14 -31 -11 -8 3 -12 2
-9 -3 3 -5 -4 -11 -16 -14 -35 -10 -45 25 -20 69 8 15 11 14 24 -4 9 -14 23
-20 40 -18 32 4 94 41 102 61 9 24 11 18 12 -35z m-186 24 c0 -3 -26 -35 -57
-71 l-57 -65 -23 28 c-13 16 -23 32 -23 37 0 12 38 8 42 -5 3 -7 25 7 54 35
46 44 64 55 64 41z m-86 -10 c29 -11 17 -23 -18 -17 -28 4 -39 1 -60 -20 -31
-31 -33 -60 -6 -87 41 -41 116 -15 122 43 l4 32 11 -25 c8 -19 7 -32 -3 -52
-18 -34 -43 -48 -87 -48 -67 0 -110 86 -69 136 31 38 70 52 106 38z m256 -104
c11 -21 20 -41 20 -44 0 -8 -84 -53 -111 -59 -24 -6 -28 -3 -44 39 -9 25 -15
47 -13 49 6 6 112 54 120 54 4 1 17 -17 28 -39z m79 -84 c10 -11 6 -46 -5 -46
-14 0 -54 26 -54 35 0 27 39 35 59 11z m116 -33 c20 -12 18 -23 -7 -27 -24 -3
-38 -17 -38 -37 0 -11 -5 -17 -10 -14 -6 4 -8 11 -4 16 3 6 -4 20 -15 31 -16
14 -19 23 -12 32 6 7 9 15 6 18 -10 9 60 -7 80 -19z m85 -2 c0 -11 -4 -23 -10
-26 -21 -13 -8 -20 30 -17 35 4 40 2 40 -17 0 -32 1 -35 12 -48 13 -17 3 -43
-17 -43 -21 0 -30 27 -15 45 19 23 4 45 -30 45 -23 0 -30 -4 -30 -19 0 -11 5
-23 10 -26 17 -11 11 -37 -10 -42 -22 -6 -26 -18 -10 -28 6 -3 10 -2 10 3 0 4
14 8 30 8 17 0 30 -3 30 -8 0 -4 7 -5 15 -2 8 4 15 1 15 -4 0 -6 -10 -9 -22
-7 -12 3 -27 -3 -35 -13 -8 -9 -12 -11 -8 -5 4 9 1 11 -11 6 -16 -6 -15 -8 4
-16 15 -7 42 -7 80 0 31 6 60 9 65 6 11 -7 -4 -86 -20 -105 -13 -15 -12 -19 7
-35 30 -25 63 -95 49 -104 -6 -3 -32 -9 -58 -12 -26 -3 -53 -7 -61 -9 -22 -5
-26 76 -6 107 18 27 21 60 6 50 -16 -10 -35 11 -50 54 -9 28 -18 39 -31 38
-23 -2 -24 -10 -5 -26 18 -15 26 -45 16 -61 -6 -9 -11 -7 -19 9 -8 14 -8 21
-1 21 11 0 3 19 -22 53 -12 16 -18 17 -41 6 -21 -9 -26 -18 -23 -40 3 -23 -1
-29 -16 -29 -16 0 -17 3 -8 20 8 15 7 27 -5 50 -9 17 -13 36 -9 42 4 7 3 8 -4
4 -6 -4 -18 6 -27 24 -9 17 -20 28 -25 25 -6 -3 -7 1 -4 9 3 9 10 16 16 16 5
0 6 -6 2 -12 -5 -8 -1 -7 10 2 24 19 46 22 39 4 -3 -8 -10 -11 -17 -7 -8 4 -8
2 1 -7 6 -7 9 -19 6 -28 -4 -10 -2 -13 5 -8 7 4 12 2 12 -4 0 -6 5 -8 10 -5 6
3 10 1 10 -5 0 -8 6 -8 21 0 11 7 27 9 35 6 14 -5 18 4 15 36 -1 9 3 19 9 23
5 3 10 15 10 26 0 15 -7 19 -36 19 l-36 0 6 -45 c7 -41 5 -45 -13 -45 -14 0
-21 6 -21 20 0 11 4 20 8 20 4 0 6 16 4 36 l-4 36 41 -4 c28 -2 41 0 41 9 0 6
-4 15 -10 18 -22 14 -10 35 20 35 23 0 30 -5 30 -19z m-263 -23 c14 -11 6 -38
-11 -38 -23 0 -49 27 -43 43 6 17 28 14 54 -5z m-252 -54 l0 -49 53 1 c45 2
52 -1 52 -17 0 -11 -7 -19 -15 -19 -8 0 -15 4 -15 8 0 11 -53 9 -61 -2 -13
-17 -41 3 -34 24 4 11 1 36 -5 55 -12 36 -6 59 13 52 7 -2 12 -25 12 -53z
m342 35 c17 -17 4 -39 -22 -39 -32 0 -42 20 -20 37 23 16 28 16 42 2z m-267
-29 c0 -11 -6 -20 -14 -20 -7 0 -19 -7 -26 -15 -23 -27 -30 -16 -12 20 19 38
52 48 52 15z m-154 -5 c4 -8 11 -15 16 -15 16 0 37 -32 31 -47 -6 -15 -53 -18
-53 -4 0 5 10 12 23 14 20 4 19 5 -10 18 -20 8 -33 21 -33 31 0 22 18 24 26 3z
m313 -35 c30 -21 57 -40 61 -42 9 -3 72 -108 65 -108 -18 0 -111 24 -115 30
-3 4 -31 24 -63 44 l-57 37 22 39 c13 22 26 40 29 40 3 0 29 -18 58 -40z
m-336 -25 c7 -16 -8 -29 -23 -20 -15 9 -12 35 4 35 8 0 16 -7 19 -15z m160
-53 c21 -18 22 -42 3 -42 -12 0 -46 50 -46 67 0 6 21 -7 43 -25z m-53 1 c0
-10 3 -29 7 -42 5 -19 2 -22 -13 -19 -10 2 -19 9 -18 16 1 6 2 23 3 37 1 28
21 35 21 8z m122 4 c28 -27 103 -77 115 -77 17 0 16 -15 -2 -30 -8 -7 -13 -16
-10 -20 3 -5 -4 -11 -15 -15 -11 -3 -20 -11 -20 -16 0 -6 -4 -8 -9 -4 -11 6
-31 -26 -31 -50 0 -9 4 -14 9 -11 12 8 -21 -97 -33 -105 -5 -4 -6 -11 -3 -16
3 -5 -7 -22 -24 -37 -19 -18 -27 -22 -22 -10 5 13 3 15 -8 9 -14 -8 7 19 44
57 9 10 17 21 18 26 9 89 -3 141 -39 162 -9 5 -13 10 -8 10 4 0 -2 8 -15 19
-13 10 -29 16 -36 14 -7 -3 -13 2 -13 11 0 18 21 21 37 5 8 -8 11 -6 10 7 -1
12 4 19 15 18 11 -1 15 3 11 10 -13 19 -12 40 0 48 15 10 13 10 29 -5z m326
-93 l-3 -47 -100 2 c-99 2 -114 5 -101 18 6 6 137 6 170 0 6 -1 10 9 9 23 -2
33 4 50 17 50 7 0 10 -18 8 -46z m423 4 c2 -23 2 -50 0 -119 -1 -32 -5 -37
-31 -42 -16 -4 -43 -4 -60 0 l-30 6 0 73 c0 70 1 74 28 88 15 8 42 15 60 16
26 0 32 -4 33 -22z m-816 -52 c12 -8 30 -31 39 -50 23 -49 8 -103 -39 -145
-29 -25 -44 -31 -83 -31 -50 1 -65 8 -100 54 -25 32 -29 87 -9 126 29 58 134
84 192 46z m175 -102 c0 -8 -22 -48 -30 -54 -3 -3 -16 -22 -28 -42 l-23 -37
23 -3 c22 -3 23 -7 26 -110 1 -60 6 -108 10 -108 4 0 7 57 7 128 l0 127 28 3
27 3 0 -131 c0 -109 2 -131 14 -127 17 7 53 -17 40 -26 -5 -3 -110 -9 -232
-13 -202 -6 -222 -5 -222 10 0 9 7 16 16 16 12 0 15 8 12 32 -3 29 0 33 22 36
13 2 30 12 37 22 8 12 20 16 34 13 18 -5 20 -11 14 -49 -3 -25 -2 -45 5 -49 6
-4 10 21 10 75 0 79 1 81 23 78 20 -3 22 -10 28 -83 l5 -80 2 68 c2 62 4 67
25 68 12 1 25 1 30 0 4 0 7 16 6 37 -1 37 -1 37 -12 10 -13 -33 -21 -34 -54
-8 -25 19 -27 19 -52 4 -14 -10 -47 -34 -72 -56 -26 -21 -52 -38 -58 -38 -24
0 -8 19 47 55 31 21 67 46 79 57 22 20 22 20 52 -1 l29 -21 41 74 c23 40 41
77 41 81 0 12 31 45 42 45 4 0 8 -3 8 -6z m777 -150 c22 -23 25 -32 21 -80 -4
-41 -1 -54 9 -54 7 0 13 -5 13 -10 0 -7 -6 -7 -18 -1 -28 15 -42 -5 -42 -59 0
-34 -5 -52 -20 -65 -20 -18 -21 -18 -34 0 -7 11 -16 43 -19 72 -6 62 -32 99
-64 95 -16 -2 -23 2 -23 13 0 11 6 15 19 10 15 -4 20 1 25 27 15 74 84 101
133 52z m-219 -126 c46 -12 49 -19 31 -81 -11 -42 -10 -41 -117 -9 l-54 16 7
46 c10 67 -3 64 133 28z"/>
<path d="M84 1669 c3 -34 6 -84 6 -110 0 -47 1 -49 28 -49 l27 0 -3 110 -3
110 -31 0 -31 0 7 -61z m46 -9 c0 -47 -3 -60 -15 -60 -9 0 -15 9 -15 23 0 12
-3 39 -6 60 -6 33 -4 37 15 37 19 0 21 -5 21 -60z"/>
<path d="M155 1720 c-4 -6 6 -7 25 -4 l30 7 0 -67 c0 -59 -2 -67 -17 -64 -13
2 -20 17 -25 52 -10 70 -21 71 -14 1 3 -33 5 -77 6 -97 0 -36 2 -38 33 -38
l32 0 -3 110 -3 110 -29 0 c-16 0 -32 -4 -35 -10z m55 -186 c0 -14 -21 -19
-33 -7 -9 9 13 34 24 27 5 -3 9 -12 9 -20z"/>
<path d="M234 1693 c3 -21 5 -73 6 -115 l0 -78 30 0 30 0 0 115 0 115 -36 0
c-36 0 -36 0 -30 -37z m54 -41 c3 -57 1 -62 -18 -62 -18 0 -20 6 -20 66 0 57
2 65 18 62 14 -3 18 -16 20 -66z"/>
<path d="M640 1720 c0 -5 9 -14 20 -20 15 -8 21 -6 30 10 10 18 8 20 -20 20
-16 0 -30 -4 -30 -10z"/>
<path d="M635 1643 c-4 -10 -9 -35 -11 -55 l-3 -38 52 3 c61 4 70 21 42 74
-14 25 -25 33 -46 33 -16 0 -30 -7 -34 -17z m55 -3 c0 -5 -5 -10 -10 -10 -6 0
-5 -8 2 -19 9 -15 9 -23 -1 -35 -19 -23 -28 -12 -25 31 2 46 1 43 19 43 8 0
15 -4 15 -10z"/>
<path d="M376 1680 c-1 -3 0 -44 2 -92 l3 -88 45 0 c37 0 44 3 44 20 0 11 7
20 15 20 12 0 15 14 15 69 l0 69 -61 4 c-34 1 -62 1 -63 -2z m79 -40 c-3 -5 1
-10 9 -10 9 0 16 -4 16 -10 0 -5 -18 -10 -39 -10 -42 0 -68 19 -29 21 23 1 23
1 -2 9 -22 7 -21 8 13 9 23 1 36 -3 32 -9z m-2 -72 c-17 -8 -29 -8 -45 0 -20
9 -18 11 22 11 40 0 42 -2 23 -11z"/>
<path d="M743 1448 c39 -23 45 -34 25 -41 -7 -2 1 -2 17 1 49 7 50 14 4 38
-58 31 -99 32 -46 2z"/>
<path d="M102 1368 c-16 -16 -15 -35 1 -42 10 -5 10 -7 0 -12 -7 -3 -13 -10
-13 -15 0 -6 5 -7 10 -4 6 3 10 0 10 -9 0 -8 -6 -17 -12 -19 -10 -4 -9 -8 2
-16 13 -10 13 -12 0 -21 -16 -10 -8 -14 24 -10 11 1 15 -3 12 -9 -4 -6 0 -11
9 -11 9 0 13 5 10 10 -3 6 1 10 10 10 9 0 13 -4 10 -10 -3 -5 1 -10 9 -10 9 0
16 5 16 10 0 6 7 10 16 10 8 0 12 -4 9 -10 -3 -5 0 -10 9 -10 8 0 16 6 19 13
4 10 7 10 18 0 15 -15 33 -17 24 -4 -3 5 4 12 15 16 30 9 24 25 -9 25 -39 0
-57 23 -43 55 9 19 19 25 42 25 16 0 30 3 30 8 0 16 -18 34 -28 28 -6 -3 -13
0 -15 6 -4 10 -8 9 -17 -2 -9 -11 -13 -12 -17 -2 -2 6 -9 12 -14 12 -6 0 -7
-4 -4 -10 3 -5 0 -10 -9 -10 -8 0 -17 6 -19 13 -4 9 -8 8 -17 -3 -9 -11 -13
-12 -17 -2 -6 15 -55 16 -71 0z m121 -32 c-4 -5 0 -7 9 -4 8 4 15 0 15 -8 0
-7 -4 -11 -9 -8 -4 3 -8 2 -9 -3 0 -4 -2 -21 -4 -38 -1 -16 -1 -24 2 -17 3 6
9 10 13 7 5 -3 7 -12 4 -20 -5 -11 -18 -13 -52 -10 -43 5 -66 20 -56 37 3 4 1
8 -4 8 -16 0 -8 34 12 53 20 18 90 21 79 3z"/>
<path d="M633 1206 c-35 -12 -66 -25 -69 -29 -4 -3 -15 -2 -25 4 -27 14 -23 5
11 -29 17 -17 30 -26 30 -21 0 5 4 9 9 9 5 0 7 -10 4 -22 -4 -19 -3 -20 6 -8
9 12 11 11 11 -7 0 -14 -6 -23 -15 -23 -10 0 -15 -11 -15 -35 0 -28 3 -33 17
-28 13 5 15 2 11 -15 -4 -12 -2 -25 4 -28 7 -4 9 23 7 80 -4 89 -15 113 -49
100 -9 -3 -11 -2 -5 4 6 5 38 19 73 32 34 12 65 27 68 31 7 13 -3 10 -73 -15z"/>
<path d="M682 1168 l-52 -21 1 -73 c1 -41 5 -77 9 -79 5 -3 33 5 64 16 l56 22
0 78 c0 89 2 87 -78 57z m62 -49 c4 -20 1 -38 -6 -47 -10 -13 -10 -14 0 -8 6
4 12 3 12 -1 0 -10 -72 -45 -78 -38 -2 2 -7 19 -11 38 -9 39 3 61 40 76 35 14
36 14 43 -20z"/>
<path d="M525 1095 c2 -11 4 -25 4 -31 1 -7 7 -14 15 -17 10 -4 13 4 12 32 0
28 -5 37 -18 37 -12 0 -16 -7 -13 -21z"/>
<path d="M375 1036 c-27 -14 -45 -25 -38 -25 14 -1 103 36 103 44 0 9 -14 5
-65 -19z"/>
<path d="M403 1007 c-24 -12 -43 -28 -42 -36 0 -11 2 -12 6 -3 4 10 8 10 19 1
11 -9 18 -9 26 -1 9 9 7 12 -7 12 -20 1 -20 1 -1 15 22 17 40 20 32 6 -4 -5 3
-7 13 -4 12 3 17 11 14 19 -7 18 -9 17 -60 -9z"/>
<path d="M798 663 c-21 -5 -24 -21 -5 -29 13 -5 87 22 87 31 0 6 -58 5 -82 -2z"/>
<path d="M815 534 c-17 -36 -18 -44 -7 -44 4 0 12 10 17 22 6 12 16 24 24 26
9 3 11 0 6 -8 -6 -9 -4 -11 4 -6 7 5 18 0 26 -10 7 -11 17 -16 21 -11 12 12
-30 60 -54 62 -15 1 -26 -8 -37 -31z"/>
<path d="M390 803 c0 -5 19 -21 42 -38 60 -43 68 -47 68 -36 0 11 -89 80 -102
81 -5 0 -8 -3 -8 -7z"/>
<path d="M516 725 c-23 -23 -20 -35 9 -35 25 0 31 14 16 38 -6 11 -11 10 -25
-3z"/>
<path d="M1040 636 c0 -7 -8 -16 -17 -18 -15 -4 -17 -14 -15 -61 l4 -57 35 0
c19 0 32 4 29 9 -3 5 1 14 9 21 16 13 19 39 9 89 -5 24 -12 31 -30 31 -14 0
-24 -6 -24 -14z m42 -55 c-8 -4 -12 -17 -10 -27 2 -15 -3 -19 -25 -20 -24 -1
-27 2 -25 27 2 26 6 29 38 29 23 0 30 -3 22 -9z"/>
<path d="M163 570 c-47 -28 -71 -80 -37 -80 13 0 14 -3 4 -15 -16 -19 10 -62
46 -75 33 -13 34 -13 34 5 0 19 18 20 22 0 2 -13 8 -12 36 5 39 24 57 61 36
73 -8 5 -12 13 -9 18 4 5 11 7 16 4 13 -9 11 18 -3 38 -16 20 -69 48 -80 41
-4 -3 -6 -24 -4 -47 3 -37 7 -42 30 -45 41 -5 31 -22 -13 -22 l-39 0 5 38 c2
20 1 47 -4 59 l-8 23 -32 -20z m17 -55 c-10 -12 -10 -15 1 -16 10 0 11 -2 2
-6 -7 -2 -13 -14 -13 -26 0 -18 2 -19 10 -7 5 8 10 12 10 8 0 -3 2 -13 5 -21
4 -8 0 -14 -10 -14 -17 0 -31 39 -20 56 3 6 1 11 -6 11 -7 0 -5 8 7 19 22 21
33 19 14 -4z"/>
<path d="M400 261 c0 -49 -3 -96 -6 -105 -4 -11 0 -16 12 -16 18 0 19 8 16
105 -2 58 -7 105 -13 105 -5 0 -9 -40 -9 -89z"/>
<path d="M330 195 c0 -42 3 -55 15 -55 12 0 15 13 15 55 0 42 -3 55 -15 55
-12 0 -15 -13 -15 -55z"/>
<path d="M210 175 c0 -25 5 -45 10 -45 6 0 10 20 10 45 0 25 -4 45 -10 45 -5
0 -10 -20 -10 -45z"/>
<path d="M1156 337 c-17 -13 -21 -31 -13 -80 10 -68 72 -75 101 -12 10 20 14
44 11 55 -15 46 -62 64 -99 37z m62 -26 c3 -8 0 -11 -7 -7 -14 9 -14 -9 1 -33
9 -15 9 -23 -2 -36 -7 -8 -18 -14 -24 -12 -11 4 -17 58 -9 90 5 21 34 19 41
-2z"/>
<path d="M955 200 c16 -17 26 -20 55 -15 27 5 32 4 23 -5 -6 -7 -9 -19 -6 -27
5 -12 7 -12 14 -1 21 33 4 50 -66 63 l-40 7 20 -22z"/>
<path d="M930 166 c-9 -12 -4 -17 30 -26 23 -6 48 -14 57 -17 13 -5 14 -3 4
15 -7 12 -20 22 -31 22 -10 0 -22 5 -25 10 -9 14 -21 12 -35 -4z"/>
<path d="M1594 1750 c-10 -4 -26 -5 -34 -3 -13 4 -13 4 0 -6 17 -12 14 -16
-19 -26 -19 -6 -23 -4 -18 9 3 8 1 18 -5 22 -7 4 -8 3 -4 -4 4 -7 3 -12 -3
-12 -5 0 -12 4 -15 8 -6 10 -64 8 -87 -2 -9 -4 -15 -15 -12 -24 2 -9 -5 -27
-17 -39 -17 -19 -19 -30 -14 -64 5 -31 4 -40 -4 -35 -7 4 -12 2 -12 -3 0 -6 4
-11 8 -11 5 0 14 -10 21 -22 15 -28 76 -35 126 -14 29 12 36 12 54 -1 12 -8
19 -18 16 -22 -2 -5 6 -6 18 -4 12 2 41 0 63 -5 27 -6 48 -6 60 1 13 7 19 7
22 -3 3 -9 11 -5 23 11 15 18 18 19 12 5 -4 -13 -3 -17 5 -12 8 5 12 -2 12
-20 0 -31 46 -97 63 -91 7 2 18 -2 25 -10 26 -26 104 -10 157 32 16 13 20 30
22 95 1 47 -2 80 -7 80 -6 0 -5 8 2 19 6 10 17 17 23 15 15 -6 17 34 3 60 -7
12 -11 32 -10 46 2 22 -1 20 -22 -15 -27 -41 -20 -60 17 -49 9 3 17 1 17 -5 0
-5 -13 -12 -30 -16 -16 -4 -30 -13 -30 -21 0 -18 -8 -18 -26 0 -17 18 -18 33
-1 39 9 3 8 12 -6 35 -12 21 -14 33 -6 37 6 4 13 -2 16 -14 6 -22 23 -29 23
-9 0 6 8 20 17 30 16 18 15 18 -18 16 -43 -4 -61 -21 -59 -56 3 -45 2 -47 -48
-47 -44 0 -54 -4 -97 -43 -8 -7 -15 -10 -15 -5 0 4 -5 1 -10 -7 -7 -11 -9 -6
-6 18 2 18 0 35 -5 38 -5 3 -3 14 4 26 9 16 9 22 0 25 -7 3 -13 10 -13 17 0
13 -47 39 -58 32 -4 -2 -28 -1 -53 3 -25 4 -54 4 -65 1z m-91 -48 c-2 -12 3
-22 10 -22 6 0 20 -19 29 -43 14 -35 15 -38 1 -19 -24 34 -31 27 -23 -24 7
-48 9 -46 -39 -60 -8 -3 -33 -2 -57 2 l-42 6 2 43 c1 26 9 51 20 63 11 13 15
28 11 41 -9 31 0 38 47 36 38 -1 43 -3 41 -23z m245 13 c8 -3 12 -32 12 -98
l0 -94 -41 -7 c-42 -7 -138 2 -140 13 -1 3 -3 44 -5 91 -4 105 1 110 94 103
37 -2 73 -6 80 -8z m195 -130 c-2 -28 -1 -29 12 -12 17 23 50 15 66 -15 9 -18
8 -24 -7 -36 -18 -13 -18 -14 2 -8 26 8 35 -15 22 -59 -11 -40 -52 -68 -102
-69 -38 -1 -41 1 -38 24 3 24 2 24 -13 5 -15 -20 -16 -19 -45 12 -50 55 -32
144 34 178 47 23 71 16 69 -20z"/>
<path d="M1430 1701 c0 -5 7 -14 15 -21 12 -10 18 -10 30 0 23 19 18 30 -15
30 -16 0 -30 -4 -30 -9z"/>
<path d="M1416 1632 c-28 -53 7 -95 63 -77 28 8 28 58 1 85 -28 28 -47 25 -64
-8z m54 -2 c0 -5 -5 -10 -11 -10 -8 0 -8 -5 1 -15 15 -18 6 -45 -14 -45 -12 0
-14 22 -7 73 2 11 31 8 31 -3z"/>
<path d="M1600 1593 l5 -58 65 0 65 0 1 58 2 57 -72 0 -71 0 5 -57z m60 -3 c0
-22 -5 -40 -11 -40 -6 0 -8 9 -4 22 6 17 4 20 -9 15 -21 -8 -20 2 1 25 22 25
23 24 23 -22z m50 20 c-13 -8 -13 -11 -1 -19 8 -5 11 -16 8 -25 -7 -18 -37
-22 -37 -5 0 5 5 7 10 4 6 -3 10 -1 10 4 0 6 -4 11 -10 11 -5 0 -10 9 -10 20
0 14 7 20 23 20 18 0 19 -2 7 -10z"/>
<path d="M1900 1532 c-16 -13 -21 -24 -16 -40 10 -29 43 -38 67 -16 24 21 24
36 1 57 -23 21 -25 21 -52 -1z"/>
<path d="M1980 1485 c0 -9 -16 -25 -35 -36 -43 -26 -46 -49 -6 -49 37 0 69 27
80 68 9 30 8 32 -15 32 -15 0 -24 -6 -24 -15z"/>
<path d="M1850 1481 c0 -7 -4 -9 -10 -6 -11 7 -2 -23 13 -42 14 -18 24 -16 30
6 3 12 -3 27 -14 37 -12 11 -19 13 -19 5z"/>
<path d="M1049 1739 c-7 -4 -17 -5 -23 -2 -5 4 -7 -1 -3 -10 3 -10 3 -17 -2
-17 -9 0 -5 -86 5 -102 3 -5 14 -6 24 -3 10 3 21 1 25 -4 3 -7 14 -7 30 -1 19
7 27 5 37 -9 16 -22 45 -33 53 -20 9 14 25 1 25 -21 0 -26 43 -54 70 -45 32
10 51 48 55 114 3 56 1 63 -26 92 -17 19 -35 29 -44 25 -8 -3 -15 0 -15 7 0 7
-5 4 -11 -6 -6 -9 -14 -15 -20 -12 -5 4 -9 0 -9 -7 -1 -10 -4 -9 -13 2 -7 8
-21 16 -32 17 -71 9 -114 10 -126 2z m125 -19 c22 -8 26 -16 26 -49 0 -22 -4
-42 -9 -45 -5 -3 -7 -15 -4 -26 7 -27 -13 -26 -28 1 -10 19 -18 21 -72 17 -34
-3 -57 -3 -50 -1 8 3 8 12 1 31 -7 18 -6 36 1 55 9 24 15 27 60 27 27 0 61 -4
75 -10z m131 -22 c0 -9 4 -20 8 -24 11 -11 9 -103 -3 -125 -14 -26 -57 -25
-65 1 -9 30 -4 143 8 158 14 18 52 11 52 -10z"/>
<path d="M1057 1704 c-11 -12 -8 -52 5 -60 6 -4 27 -7 46 -6 20 1 41 -3 48 -9
10 -8 15 -5 19 14 13 51 4 62 -55 65 -31 2 -59 0 -63 -4z"/>
<path d="M2377 1739 c-9 -5 -22 -7 -29 -3 -6 4 -8 3 -5 -3 3 -5 -30 -23 -73
-39 -44 -16 -80 -33 -80 -37 0 -5 -4 -5 -10 -2 -5 3 -10 0 -10 -7 0 -9 -3 -9
-10 2 -6 10 -10 11 -10 3 0 -7 -8 -13 -17 -13 -16 0 -16 -2 -3 -11 12 -8 9 -9
-11 -5 -21 5 -26 2 -25 -12 0 -9 -4 -16 -9 -15 -6 1 -11 -11 -10 -27 0 -33 56
-93 79 -84 17 6 26 -16 32 -84 3 -26 5 -52 6 -58 2 -13 30 -13 39 0 4 4 16 3
28 -3 20 -11 20 -13 5 -36 -18 -27 -25 -32 -22 -12 2 6 -3 11 -9 9 -7 -1 -13
4 -13 10 0 9 -4 8 -10 -2 -6 -9 -10 -11 -10 -3 0 7 -6 10 -14 7 -8 -3 -17 -1
-21 5 -21 35 -204 -20 -190 -57 3 -8 -2 -26 -10 -39 -13 -20 -14 -30 -5 -58
11 -33 13 -34 53 -28 36 4 75 7 170 12 9 1 31 0 48 -1 21 -1 38 6 55 25 l25
27 36 -35 c20 -19 41 -35 47 -36 6 0 0 -5 -13 -10 -17 -7 -21 -14 -16 -27 11
-26 15 -102 5 -102 -4 0 -6 -9 -3 -20 4 -15 2 -19 -10 -15 -8 4 -21 -1 -30 -9
-22 -22 -22 -21 -21 25 1 54 -6 90 -17 84 -4 -3 -13 3 -18 14 -21 39 -104 46
-126 11 -4 -6 -14 -9 -22 -6 -8 3 -11 1 -8 -5 4 -5 2 -16 -4 -23 -16 -19 -16
-75 -1 -119 8 -20 16 -37 20 -37 4 0 8 -20 13 -72 1 -9 3 -15 5 -13 3 2 13 -6
22 -18 10 -12 26 -22 37 -22 21 0 43 17 36 28 -2 4 1 7 7 7 6 0 8 4 5 10 -3 5
-1 10 4 10 6 0 11 9 11 20 0 30 29 82 41 74 6 -4 5 -12 -3 -22 -10 -12 -10
-14 0 -8 9 5 12 -8 12 -56 0 -70 5 -82 38 -92 12 -4 22 -12 22 -17 0 -6 -4 -8
-9 -4 -13 7 -1 -68 11 -76 5 -3 1 -12 -8 -20 -16 -12 -17 -12 -12 2 4 11 -2
20 -18 28 -14 6 -22 16 -19 21 3 6 1 10 -6 10 -8 0 -8 4 1 15 11 13 10 14 -4
9 -9 -3 -16 -1 -16 6 0 6 -4 8 -10 5 -5 -3 -10 -2 -10 2 0 17 -72 43 -92 32
-22 -12 -23 -31 -4 -92 7 -25 12 -47 10 -49 -2 -2 8 -5 21 -6 13 -1 35 -13 49
-27 14 -14 30 -25 36 -25 6 0 8 -4 5 -10 -10 -16 0 -11 31 15 16 14 32 25 36
25 5 0 7 5 5 11 -1 6 5 14 13 17 8 2 12 1 8 -3 -4 -4 3 -17 16 -29 26 -24 41
-56 25 -56 -6 0 -8 -4 -5 -9 3 -5 -8 -14 -25 -20 -25 -8 -29 -8 -21 2 8 9 -1
13 -41 14 -35 1 -46 -1 -37 -7 13 -8 12 -10 -2 -10 -9 0 -22 8 -27 17 -6 10
-11 13 -11 6 0 -6 4 -14 9 -18 5 -3 9 -19 9 -36 -1 -16 4 -35 10 -41 7 -7 12
-21 12 -33 0 -17 -2 -17 -10 -5 -8 11 -9 8 -4 -11 3 -15 1 -30 -5 -33 -6 -4
-11 -3 -11 1 0 9 -46 8 -94 -1 -23 -4 -27 -3 -17 7 12 12 15 13 54 17 12 1 17
4 10 7 -10 3 -10 7 0 18 7 7 15 11 18 10 8 -6 5 52 -3 61 -11 10 -10 26 1 20
4 -3 6 7 4 22 -2 15 -5 33 -5 40 -2 15 -42 27 -57 17 -6 -3 -11 0 -11 8 0 8
-13 20 -29 27 -23 9 -33 9 -50 -2 -12 -7 -21 -17 -21 -21 0 -5 -7 -6 -16 -3
-11 4 -15 2 -11 -8 4 -10 -2 -18 -16 -22 -11 -4 -27 -13 -35 -21 -12 -11 -17
-11 -31 -1 -14 11 -14 11 -4 -3 10 -12 10 -18 0 -28 -9 -10 -8 -15 6 -25 9 -7
17 -21 17 -30 0 -10 8 -16 25 -16 33 0 32 14 -5 40 -34 24 -32 35 13 54 29 12
33 12 49 -8 9 -11 20 -17 24 -13 4 4 -1 16 -12 28 -19 21 -19 21 15 50 37 31
51 26 51 -18 0 -30 17 -38 30 -13 14 25 24 25 49 -1 22 -24 18 -45 -11 -55
-19 -6 -19 -7 4 -31 l23 -25 -29 -25 -29 -25 -18 23 c-10 13 -21 20 -25 16 -4
-4 0 -15 9 -25 16 -17 15 -20 -8 -42 -13 -12 -22 -27 -18 -33 3 -5 9 -3 14 4
6 10 9 10 9 2 0 -7 -14 -20 -30 -28 -29 -15 -31 -15 -40 7 -5 13 -9 19 -9 14
-1 -5 -7 -3 -15 4 -8 6 -12 18 -10 25 4 10 0 12 -15 8 -29 -7 -52 14 -49 45 2
14 -2 27 -8 29 -7 2 -10 -13 -9 -42 1 -34 -3 -45 -15 -47 -8 0 -21 -2 -28 -2
-29 -3 -88 -87 -78 -112 3 -9 1 -12 -4 -9 -6 3 -10 13 -10 22 0 9 -6 13 -14
10 -10 -4 -13 -1 -9 9 4 10 0 12 -11 8 -10 -4 -16 -1 -16 9 0 9 -4 19 -10 22
-5 3 -7 0 -4 -8 3 -9 -2 -13 -18 -12 -33 3 -68 -24 -85 -63 -13 -31 -12 -35 4
-50 10 -10 19 -23 21 -31 4 -18 35 -42 42 -33 8 11 30 13 30 3 0 -5 -6 -12
-12 -14 -10 -4 -10 -6 0 -6 7 -1 15 6 18 14 4 8 14 15 23 15 10 0 26 8 37 18
18 18 19 18 37 -5 10 -13 24 -23 32 -23 7 0 15 -5 17 -12 3 -8 27 -12 69 -11
82 1 98 4 96 17 -1 6 6 10 15 10 10 -1 14 4 11 12 -3 8 0 14 7 14 15 0 61 -36
55 -42 -3 -3 1 -5 8 -5 6 -1 28 -3 47 -6 46 -6 89 7 120 36 25 23 60 32 60 15
0 -17 6 -24 39 -42 38 -20 127 -27 139 -11 9 13 77 51 70 39 -6 -9 15 -33 29
-36 5 0 22 -8 40 -16 39 -19 95 -6 135 31 14 13 30 21 35 20 6 -2 14 1 18 6 3
7 0 8 -9 5 -9 -3 -16 -2 -16 4 0 6 4 12 10 14 13 4 21 96 9 104 -5 3 -6 11 -3
17 4 7 4 9 0 6 -8 -8 -56 37 -56 51 0 5 -4 12 -10 15 -6 4 -7 -1 -3 -12 6 -15
4 -16 -9 -5 -8 7 -38 14 -66 16 -42 4 -54 1 -76 -19 -13 -12 -27 -20 -30 -17
-3 3 -6 -1 -6 -9 0 -8 -12 0 -25 18 -15 18 -32 30 -39 27 -8 -3 -17 0 -21 6
-4 6 -16 8 -27 4 -14 -4 -18 -2 -14 5 5 7 1 9 -8 5 -12 -5 -16 0 -16 20 0 14
-5 35 -12 45 -6 11 -8 26 -3 37 5 11 7 23 6 28 -1 5 7 6 19 3 13 -3 20 0 20 9
0 8 5 14 10 14 15 0 12 -16 -5 -30 -13 -11 -11 -16 15 -42 17 -16 35 -26 40
-23 6 3 10 2 10 -3 0 -6 14 -9 31 -8 37 1 50 -19 19 -29 -14 -4 -28 -1 -39 9
-21 19 -35 21 -24 4 4 -7 8 -17 8 -22 0 -21 60 -17 84 5 21 19 21 23 7 31 -9
5 -16 14 -16 19 0 6 8 3 18 -7 9 -10 17 -22 17 -27 0 -12 33 -18 60 -11 17 4
20 11 17 40 -2 19 -8 36 -13 39 -4 3 -5 -12 -2 -32 6 -43 -12 -36 -20 7 -2 14
-3 8 -2 -13 4 -53 -18 -42 -27 14 -9 52 -3 83 12 59 8 -12 10 -12 10 -1 0 7 6
11 15 7 8 -3 15 -1 15 5 0 6 4 8 9 5 4 -3 11 -31 14 -62 6 -58 12 -73 24 -60
4 3 1 29 -6 56 -7 27 -9 54 -5 61 11 19 23 -13 25 -69 1 -29 6 -49 11 -46 6 4
7 32 3 65 -4 36 -3 59 3 59 5 0 12 -22 16 -49 9 -70 31 -74 31 -6 0 29 -3 51
-7 49 -4 -3 -12 5 -18 16 -8 16 -8 20 2 18 19 -4 16 131 -3 146 -19 15 -18 35
4 68 10 15 16 32 12 38 -3 5 1 10 11 10 11 0 15 6 11 20 -3 11 -1 22 4 25 12
8 -32 55 -52 55 -10 0 -21 5 -25 12 -5 7 -2 8 7 3 11 -6 11 -5 2 5 -14 15 5
40 31 40 9 0 16 5 16 10 0 6 6 10 14 10 16 0 28 37 15 46 -5 3 -9 20 -10 37 0
27 -2 29 -9 12 -6 -14 -9 -16 -10 -5 -2 8 -2 19 -1 23 1 5 -3 6 -9 2 -11 -7 1
-37 26 -65 18 -21 8 -32 -56 -59 -30 -13 -64 -29 -76 -36 -25 -16 -34 -11 -62
37 l-21 38 82 41 c86 42 120 66 80 55 -56 -15 -63 -18 -63 -26 0 -11 -67 -33
-79 -26 -5 4 -7 16 -5 29 6 24 6 21 0 96 -4 38 -10 57 -25 67 -16 11 -19 22
-14 49 3 20 1 41 -6 48 -13 16 -5 28 15 20 8 -3 14 0 14 6 0 13 22 10 32 -4 5
-6 8 -3 8 6 0 9 7 22 15 29 10 9 15 9 15 1 0 -6 -4 -11 -10 -11 -5 0 -10 -5
-10 -11 0 -6 9 -4 22 5 17 12 25 13 36 4 10 -9 16 -8 23 3 6 10 9 10 9 2 0 -7
5 -13 11 -13 6 0 8 8 5 18 -6 16 -5 16 8 0 18 -24 29 -23 16 2 -9 16 -8 20 6
20 10 0 14 3 11 6 -4 4 4 21 16 38 22 31 41 60 53 84 10 20 -43 69 -82 76 -71
14 -151 -31 -142 -80 2 -9 -3 -19 -11 -22 -8 -3 -11 0 -7 6 3 6 2 13 -3 16 -5
3 -11 -1 -15 -9 -3 -9 6 -22 24 -35 17 -12 30 -30 30 -41 0 -12 10 -23 26 -29
33 -13 37 -13 28 3 -5 8 -2 8 9 -2 18 -14 23 -26 8 -17 -5 4 -11 1 -13 -6 -4
-10 -10 -9 -27 2 -21 14 -30 13 -104 -11 -51 -17 -88 -24 -97 -19 -8 5 -48 38
-87 75 -102 93 -100 119 12 148 66 18 57 21 153 -51 17 -13 32 -20 32 -16 0 5
-13 18 -29 29 -16 10 -28 22 -25 26 4 7 -45 39 -79 52 -12 5 -16 3 -11 -5 5
-8 2 -9 -9 -5 -9 3 -19 2 -22 -3 -4 -6 -11 -10 -17 -10 -6 0 -2 8 9 18 11 9
20 24 20 32 0 8 2 21 4 29 2 8 -6 20 -18 26 -13 7 -20 15 -15 20 4 4 -14 5
-40 3 -26 -3 -45 -2 -42 3 7 12 -7 11 -29 -2z m84 -35 c21 -4 39 -10 39 -13 0
-4 -17 -23 -37 -42 -50 -47 -256 -132 -310 -127 -31 2 -39 7 -41 26 -5 32 18
55 85 83 32 13 89 38 128 55 38 18 76 30 83 28 8 -2 31 -7 53 -10z m443 -145
c26 -24 14 -36 -16 -15 -28 20 -87 20 -112 1 -25 -19 -36 -19 -36 0 0 8 1 15
3 15 1 0 20 7 42 15 47 17 92 11 119 -16z m-511 -29 c3 -11 1 -18 -4 -14 -21
13 -7 -17 15 -31 13 -9 26 -25 29 -37 4 -13 11 -19 21 -15 23 9 26 -17 3 -29
-19 -11 -17 -14 31 -38 52 -26 59 -39 44 -78 -7 -18 -125 -108 -140 -108 -14
0 -132 72 -132 80 0 4 29 29 65 55 35 26 67 56 70 65 3 10 20 21 38 25 l32 8
-30 6 c-25 6 -32 3 -43 -16 -16 -29 -21 -29 -16 0 2 12 2 16 -2 10 -3 -7 -9
-13 -14 -13 -13 0 -19 26 -8 41 8 11 9 10 4 -4 -3 -11 -2 -16 4 -12 15 9 12
21 -12 48 -20 23 -24 24 -45 10 -21 -14 -23 -14 -23 0 0 8 -6 18 -12 20 -8 4
-7 6 4 6 9 1 23 7 30 15 29 29 84 33 91 6z m492 -3 c11 -9 14 -16 7 -21 -6 -3
-13 -2 -17 4 -9 15 -71 12 -85 -5 -12 -14 -30 -12 -30 4 0 26 94 40 125 18z
m-19 -31 c25 -19 12 -31 -15 -14 -17 10 -25 10 -41 0 -16 -10 -20 -10 -20 2 0
27 46 34 76 12z m-601 -46 c0 -20 -6 -26 -28 -28 -32 -4 -46 20 -26 44 19 24
54 14 54 -16z m85 11 c0 -4 -21 -22 -47 -39 -27 -17 -58 -39 -71 -48 -12 -9
-26 -13 -30 -9 -4 4 4 15 18 24 13 9 43 30 65 48 40 31 65 41 65 24z m505 -11
c0 -8 -10 -16 -22 -18 -18 -3 -23 2 -23 18 0 16 5 21 23 18 12 -2 22 -10 22
-18z m-530 -54 c16 -12 17 -16 6 -30 -17 -20 -50 -21 -57 -1 -6 15 11 45 25
45 4 0 16 -6 26 -14z m305 -96 c0 -20 -6 -33 -17 -37 -9 -4 -29 -21 -45 -39
-44 -50 -175 -97 -185 -66 -3 7 5 12 19 12 72 0 174 67 166 109 -3 13 21 33
60 50 1 1 2 -13 2 -29z m-481 -4 c7 -6 26 -9 42 -8 23 3 31 -2 38 -20 4 -13 6
-29 4 -35 -3 -8 3 -13 16 -13 32 0 29 -48 -4 -56 -14 -3 -32 -4 -40 0 -19 7
-20 45 -1 52 8 3 11 15 8 30 -5 30 -43 33 -73 5 -22 -20 -18 -41 7 -41 8 0 14
-10 14 -25 0 -22 -4 -25 -39 -25 -33 0 -39 3 -43 25 -4 19 -1 25 13 25 13 0
19 7 19 21 0 15 -5 19 -15 15 -9 -3 -18 1 -21 9 -4 8 -17 15 -30 15 -20 0 -24
-5 -24 -30 0 -19 5 -30 14 -30 19 0 26 -21 14 -42 -10 -21 -48 -24 -66 -6 -19
19 -15 48 7 48 17 0 18 4 11 29 -10 35 2 48 43 46 16 -1 27 4 27 12 0 16 58
15 79 -1z m507 -87 c11 -19 7 -215 -6 -239 -9 -16 -19 -20 -43 -18 l-32 3 -3
110 c-3 126 6 155 49 155 15 0 31 -5 35 -11z m-101 -139 c1 -90 -13 -120 -55
-120 l-30 0 0 88 c0 98 8 115 55 110 l30 -3 0 -75z m-111 44 c12 -5 16 -21 16
-69 0 -35 -4 -67 -10 -70 -17 -10 -11 -25 13 -34 33 -13 30 -38 -5 -38 -21 0
-25 3 -17 13 15 18 2 34 -27 34 -23 0 -24 2 -24 75 0 60 3 76 18 84 21 13 17
12 36 5z m-195 -60 c38 -32 41 -75 10 -136 -11 -22 -19 -52 -16 -65 3 -14 -3
-33 -14 -46 l-18 -22 -21 21 c-11 11 -22 36 -23 55 -2 20 -13 49 -25 66 -37
52 -22 121 32 143 33 14 42 12 75 -16z m469 -135 c20 -24 21 -28 5 -22 -16 6
-17 5 -3 -12 12 -15 12 -17 1 -10 -11 6 -13 3 -9 -13 5 -18 3 -20 -12 -12 -9
5 -21 6 -25 2 -5 -4 -5 -1 -1 5 12 21 -13 53 -40 53 -14 0 -23 4 -19 10 3 5
13 6 23 3 9 -3 14 -3 10 2 -10 10 22 34 37 28 5 -2 20 -18 33 -34z m-341 5 c8
-22 -18 -37 -36 -20 -7 8 -10 19 -7 25 10 16 36 13 43 -5z m173 6 c-13 -8 -13
-10 2 -10 9 0 18 3 21 8 2 4 2 0 0 -8 -2 -10 1 -9 11 4 14 18 15 18 13 -3 -1
-11 -7 -23 -14 -25 -7 -3 -13 -12 -13 -21 0 -9 -9 -15 -25 -15 -29 0 -33 -15
-7 -29 16 -9 16 -10 0 -16 -24 -10 -23 -25 2 -25 11 0 20 -7 20 -15 0 -10 -11
-15 -35 -15 l-35 0 0 65 0 65 40 0 c46 0 53 15 13 25 -21 5 -24 8 -12 16 7 5
19 9 24 9 6 0 3 -5 -5 -10z m105 -82 c19 -65 19 -78 0 -78 -8 0 -15 7 -15 15
0 22 -17 18 -23 -5 -3 -11 -13 -20 -22 -20 -13 0 -15 6 -10 33 25 120 46 136
70 55z m155 35 c0 -12 11 -17 35 -14 6 0 16 -8 23 -20 11 -17 10 -24 -8 -48
-11 -16 -20 -33 -20 -38 0 -6 -8 -17 -18 -26 -17 -16 -21 -15 -65 13 -26 16
-47 32 -47 35 0 8 40 87 51 100 11 15 49 13 49 -2z m-434 -26 c10 -40 0 -102
-16 -105 -12 -2 -15 10 -15 63 0 45 4 65 12 65 7 0 15 -11 19 -23z m86 6 c31
-28 22 -70 -19 -92 -39 -20 -48 -14 -50 37 -1 26 0 53 2 60 6 17 45 15 67 -5z
m248 -123 c0 -11 -7 -20 -15 -20 -8 0 -15 9 -15 20 0 11 7 20 15 20 8 0 15 -9
15 -20z m-40 5 c0 -2 -6 -19 -14 -37 -25 -56 -49 -142 -48 -170 1 -33 -17 -47
-30 -24 -11 20 -38 21 -64 1 -27 -20 -44 -18 -44 5 0 15 7 20 29 20 51 0 91
12 91 27 0 12 -15 14 -77 12 l-77 -4 -22 55 c-13 30 -23 61 -24 68 0 9 31 12
124 12 115 0 124 1 129 20 4 17 27 30 27 15z m-385 -71 c0 -9 16 -28 35 -44
34 -28 34 -29 16 -49 -25 -28 -33 -27 -63 9 -13 17 -33 30 -44 30 -19 0 -22 7
-34 81 l-5 37 47 -25 c27 -13 48 -31 48 -39z m460 27 c-11 -5 -23 -7 -26 -5
-4 2 -13 -16 -21 -41 -9 -26 -11 -45 -6 -45 6 0 8 -7 4 -15 -7 -18 13 -65 27
-65 6 0 -2 -11 -18 -24 -23 -20 -27 -29 -22 -55 6 -28 4 -30 -16 -27 -12 3
-29 5 -37 5 -10 1 -15 12 -15 36 0 19 3 35 7 35 4 0 8 11 8 26 0 14 9 45 21
70 11 25 19 53 18 62 -3 33 1 41 18 35 9 -4 14 -2 10 3 -3 6 10 11 31 12 28 1
32 -1 17 -7z m89 -27 c12 -5 16 -21 16 -70 l0 -64 -60 0 c-61 0 -67 5 -62 51
1 4 -3 20 -7 37 -6 20 -5 34 2 41 12 12 85 15 111 5z m-459 -204 c9 -28 -13
-52 -44 -48 -29 3 -43 44 -19 59 24 16 56 10 63 -11z m95 4 c0 -3 -29 -35 -64
-72 -49 -50 -68 -64 -76 -56 -15 15 105 145 126 137 8 -3 14 -7 14 -9z m125
-25 c1 -21 -3 -25 -22 -21 -28 5 -37 17 -29 38 4 9 15 14 28 12 17 -2 23 -10
23 -29z m-137 -48 c8 -4 12 -19 10 -32 -2 -19 -9 -24 -33 -24 -36 0 -47 31
-19 52 21 15 24 16 42 4z m-55 -88 c-7 -3 -9 -11 -6 -20 4 -10 2 -14 -4 -10
-6 4 -13 4 -16 0 -2 -5 -2 -2 0 6 2 8 -2 11 -12 7 -9 -3 -14 -2 -12 2 2 4 7
15 10 25 6 15 10 16 29 6 13 -7 18 -14 11 -16z m193 -34 c20 -21 27 -39 28
-71 1 -41 0 -43 -27 -41 -28 2 -28 2 -7 -15 l21 -17 -23 -22 c-13 -12 -36 -23
-53 -25 -26 -3 -30 0 -27 20 2 12 -2 22 -7 22 -6 0 -11 -9 -11 -20 0 -27 -12
-25 -49 6 -38 32 -39 47 -4 63 24 11 29 10 43 -9 20 -26 54 -20 71 12 9 17 7
25 -14 45 l-25 25 -32 -31 c-18 -17 -36 -31 -41 -31 -4 0 -14 -3 -23 -6 -22
-8 -22 53 0 85 38 54 132 60 180 10z m-625 9 l2 -23 4 23 c5 23 11 26 37 16
13 -5 13 -10 5 -27 -10 -18 -9 -20 2 -9 21 19 37 14 53 -17 14 -26 14 -30 0
-35 -27 -10 -54 -7 -60 8 -9 24 -31 26 -58 5 -30 -23 -25 -46 13 -60 21 -9 29
-7 42 10 16 20 68 29 82 15 10 -11 -15 -64 -40 -84 -32 -25 -43 -25 -44 -2 0
13 -2 12 -9 -5 -11 -27 -21 -28 -66 -7 -42 20 -64 59 -64 112 0 33 6 45 35 71
42 37 64 40 66 9z m319 17 c0 -21 -27 -55 -43 -55 -25 0 -57 -28 -57 -50 0 -9
6 -25 14 -35 15 -21 10 -49 -7 -38 -6 3 -7 1 -3 -5 11 -18 23 -14 29 8 3 13
14 20 29 20 32 0 45 11 53 41 4 18 1 31 -10 42 -12 13 -14 21 -5 37 14 27 24
25 49 -6 32 -40 29 -108 -6 -140 -51 -47 -130 -45 -175 6 -32 35 -38 79 -10
81 16 1 16 2 0 6 -16 4 -17 7 -2 34 17 34 63 58 112 59 17 0 32 -2 32 -5z
m451 -22 c1 -17 2 -17 6 0 3 11 14 17 32 17 79 0 128 -113 74 -172 -19 -21
-37 -24 -30 -5 3 8 -1 14 -9 14 -17 0 -18 -9 -2 -25 22 -22 -15 -38 -81 -34
-18 2 -22 6 -16 20 16 41 16 46 -3 22 -20 -24 -21 -24 -41 -6 -15 14 -21 31
-21 63 0 46 5 50 45 31 20 -9 25 -18 22 -34 -2 -13 -1 -22 2 -22 3 1 16 -1 28
-6 34 -11 65 10 61 42 -4 35 -53 56 -72 30 -12 -16 -15 -16 -45 3 -29 17 -31
22 -19 37 33 42 67 55 69 25z m-946 -68 c30 -29 34 -80 7 -94 -11 -6 -24 -6
-32 -1 -9 5 -19 5 -27 -2 -19 -16 -43 -2 -43 25 0 49 55 62 62 15 4 -30 32
-30 36 0 4 30 -24 62 -54 62 -12 0 -31 -11 -42 -25 -21 -27 -32 -32 -32 -15 0
21 49 60 75 60 14 0 37 -11 50 -25z"/>
<path d="M2394 1689 c-3 -6 -1 -14 5 -18 6 -4 9 -15 5 -24 -7 -20 7 -22 24 -5
17 17 15 45 -4 52 -21 8 -22 8 -30 -5z"/>
<path d="M2300 1656 c-111 -46 -133 -56 -128 -61 4 -4 187 71 197 81 9 9 -17
1 -69 -20z"/>
<path d="M2273 1618 c-51 -22 -93 -44 -93 -49 0 -5 26 3 58 17 31 14 76 33
100 42 23 9 42 20 42 24 0 12 -8 10 -107 -34z"/>
<path d="M2325 1610 c-22 -11 -62 -29 -88 -40 -27 -12 -47 -23 -45 -26 4 -3
186 73 197 82 12 11 -29 0 -64 -16z"/>
<path d="M2390 1352 c-14 -15 -43 -41 -64 -58 l-40 -30 47 -27 c25 -15 52 -27
59 -27 16 0 118 87 118 101 0 6 -4 7 -10 4 -16 -10 -92 34 -86 51 7 19 5 18
-24 -14z m51 -42 c36 -19 38 -22 24 -36 -8 -8 -20 -12 -26 -8 -8 4 -9 3 -5 -4
11 -18 -21 -14 -52 5 -25 16 -26 16 -14 1 8 -10 22 -20 33 -23 11 -4 17 -10
14 -15 -3 -5 -26 3 -50 17 -38 21 -44 28 -34 40 7 7 19 11 28 8 8 -3 12 -3 8
1 -8 8 11 34 25 34 5 0 27 -9 49 -20z"/>
<path d="M2590 1076 c0 -100 1 -106 20 -106 19 0 20 5 18 102 -3 89 -5 103
-20 106 -16 3 -18 -7 -18 -102z"/>
<path d="M2492 1065 c1 -30 -1 -56 -5 -58 -13 -4 4 -37 19 -37 11 0 14 18 14
75 0 62 -3 75 -16 75 -13 0 -15 -10 -12 -55z"/>
<path d="M2408 1025 c4 -53 22 -80 22 -31 0 13 3 38 6 55 5 26 3 31 -12 31
-17 0 -19 -7 -16 -55z"/>
<path d="M2168 1027 c-33 -27 -35 -45 -8 -95 10 -20 21 -45 24 -54 6 -19 36
-25 36 -8 0 6 -7 10 -15 10 -9 0 -15 9 -15 24 0 14 -4 28 -10 31 -5 3 -10 11
-10 17 0 7 6 6 15 -2 8 -7 15 -22 15 -33 0 -27 6 -19 13 19 5 28 4 30 -24 28
-37 -3 -48 13 -17 25 24 9 68 -5 68 -21 0 -5 -5 -18 -11 -29 -6 -11 -8 -25 -6
-32 2 -7 12 3 21 22 14 27 16 39 7 58 -14 30 -14 36 0 27 8 -4 8 0 0 15 -15
27 -49 26 -83 -2z"/>
<path d="M2760 834 c-15 -27 -18 -40 -10 -48 8 -8 13 -7 20 4 5 8 7 17 4 21
-4 8 26 22 33 15 3 -3 -2 -15 -11 -27 -11 -17 -13 -26 -4 -36 9 -11 15 -7 30
17 18 31 18 31 -4 50 -13 11 -27 19 -31 20 -5 0 -5 5 -2 10 3 6 4 10 2 10 -3
0 -15 -16 -27 -36z"/>
<path d="M2420 820 c0 -22 2 -40 5 -40 2 0 11 13 20 30 14 27 14 30 -5 40 -18
10 -20 8 -20 -30z"/>
<path d="M2470 600 c0 -5 29 -8 65 -7 36 1 65 5 65 9 0 5 -29 8 -65 8 -36 0
-65 -4 -65 -10z"/>
<path d="M2220 665 c0 -16 6 -25 16 -25 8 0 27 -13 41 -30 13 -16 31 -30 39
-30 10 0 0 18 -26 49 -51 60 -70 70 -70 36z"/>
<path d="M2540 276 c0 -13 7 -29 15 -36 8 -7 15 -20 15 -29 0 -18 18 -41 32
-41 14 0 9 51 -8 79 -9 15 -25 33 -35 39 -17 11 -19 9 -19 -12z"/>
<path d="M1898 192 c-16 -3 -17 -6 -3 -33 14 -26 60 -59 83 -59 5 0 7 11 4 25
-2 14 -10 25 -17 25 -8 0 -22 10 -32 23 -10 12 -26 21 -35 19z"/>
<path d="M2760 270 c0 -22 43 -45 67 -36 20 8 16 20 -16 39 -38 22 -51 21 -51
-3z"/>
<path d="M2636 1739 c2 -4 -3 -9 -11 -13 -8 -3 -15 -12 -15 -20 0 -22 32 -86
42 -86 5 0 6 -4 3 -10 -4 -6 1 -7 11 -3 12 4 15 3 10 -6 -6 -9 -3 -9 13 1 12
7 28 27 36 45 9 18 20 35 25 38 5 3 7 15 5 27 -5 24 -15 37 -15 19 0 -7 -5 -9
-10 -6 -6 4 -8 10 -6 14 3 4 -17 7 -44 7 -27 0 -47 -3 -44 -7z m94 -34 c15
-18 10 -18 -24 -5 -17 6 -35 6 -52 -1 -30 -11 -46 -3 -24 11 23 15 86 12 100
-5z m-10 -22 c2 -2 -2 -8 -10 -13 -8 -5 -15 -17 -15 -27 0 -10 -8 -19 -17 -21
-12 -2 -18 3 -18 17 0 11 -4 23 -10 26 -15 10 -12 23 8 28 17 4 52 -1 62 -10z"/>
<path d="M2550 1581 c0 -5 7 -17 16 -26 21 -20 16 -25 -32 -28 -32 -2 -41 2
-49 21 -10 23 -20 28 -29 13 -3 -5 25 -36 62 -69 l68 -61 57 18 c31 9 58 19
61 21 2 3 -32 31 -75 62 -43 32 -79 54 -79 49z m110 -87 c0 -16 -42 -41 -60
-37 -32 8 -23 31 13 36 17 2 35 5 40 5 4 1 7 -1 7 -4z"/>
<path d="M2507 1563 c-25 -6 -11 -23 19 -23 15 0 24 5 22 12 -5 14 -17 17 -41
11z"/>
<path d="M2457 1506 c-4 -10 7 -26 33 -46 51 -41 59 -23 11 24 -30 29 -40 34
-44 22z"/>
<path d="M1434 1435 c-22 -33 -12 -105 17 -123 24 -15 34 -10 55 29 40 78 -26
164 -72 94z m51 -5 c8 -24 -4 -110 -15 -110 -12 0 -22 68 -15 101 8 34 21 38
30 9z"/>
<path d="M2651 1420 c-30 -11 -58 -17 -62 -14 -5 3 -9 -2 -9 -10 0 -13 5 -13
48 0 26 8 57 17 70 20 12 3 22 10 22 15 0 12 -7 11 -69 -11z"/>
<path d="M1216 1385 c-23 -23 -20 -58 7 -87 13 -14 22 -29 20 -35 -3 -9 10
-13 52 -14 26 0 47 29 39 55 -10 34 -59 91 -81 94 -11 2 -28 -4 -37 -13z m40
-13 c17 -11 54 -75 54 -94 0 -14 -4 -14 -24 -5 -28 14 -56 56 -56 86 0 22 7
26 26 13z"/>
<path d="M1648 1375 c-6 -13 -15 -22 -19 -19 -5 3 -10 -1 -11 -8 0 -7 -2 -17
-2 -23 -1 -5 -6 -17 -10 -25 -5 -8 -5 -12 -1 -7 5 4 15 -7 23 -25 13 -31 14
-32 25 -13 7 11 17 21 24 22 19 4 58 48 57 64 -5 43 -17 59 -45 59 -22 0 -32
-7 -41 -25z m62 -6 c0 -19 -34 -69 -47 -69 -7 0 -13 -7 -13 -15 0 -8 -4 -15
-10 -15 -18 0 -8 27 37 103 7 11 33 8 33 -4z"/>
<path d="M2885 1368 c6 -16 -1 -18 -61 -19 -38 -1 -59 -4 -48 -6 15 -3 22 -12
22 -28 0 -14 -4 -22 -9 -19 -5 3 -6 -2 -3 -10 10 -25 -6 -19 -16 7 -7 16 -9 6
-8 -43 1 -36 4 -71 6 -77 3 -9 27 -13 73 -13 l68 0 -6 103 c-3 56 -10 107 -15
112 -6 6 -7 4 -3 -7z m-15 -50 c-21 -23 -26 -38 -11 -38 4 0 11 -17 14 -37 3
-21 8 -46 12 -55 6 -16 0 -18 -50 -18 -48 0 -56 3 -51 16 3 9 6 22 6 30 0 8 5
14 10 14 6 0 10 -9 10 -20 0 -11 7 -20 15 -20 8 0 15 2 15 4 0 2 3 13 6 23 5
15 4 16 -5 3 -10 -13 -12 -13 -21 0 -15 23 -12 30 10 30 18 0 19 3 10 21 -11
19 -21 24 -17 8 3 -9 -34 -49 -45 -49 -17 0 -6 18 38 63 25 26 52 47 60 47 11
0 10 -6 -6 -22z"/>
<path d="M2922 1268 c4 -62 4 -116 1 -121 -3 -5 0 -7 8 -5 8 3 12 12 10 19 -2
8 -5 57 -8 109 -2 52 -7 98 -11 102 -4 4 -4 -43 0 -104z"/>
<path d="M427 1258 c-43 -43 -44 -45 -6 -9 32 29 53 42 64 38 12 -5 13 -11 6
-24 -19 -34 -79 -98 -86 -92 -3 4 12 26 34 50 22 24 37 46 34 49 -8 8 -103
-99 -103 -116 0 -27 22 -14 87 51 40 40 63 71 61 82 -7 35 -38 25 -91 -29z"/>
<path d="M2735 1225 c4 -78 12 -108 27 -99 7 4 7 9 0 13 -6 3 -15 40 -21 81
l-10 75 4 -70z"/>
<path d="M1820 1269 c0 -5 -5 -9 -10 -9 -20 0 -70 -44 -70 -62 0 -37 82 -46
111 -12 6 8 18 14 26 14 8 0 12 4 9 9 -4 5 -1 11 6 13 7 3 3 12 -11 25 -25 23
-61 36 -61 22z m40 -43 c-14 -18 -98 -51 -106 -43 -9 9 69 56 95 56 19 1 21
-2 11 -13z"/>
<path d="M1425 1255 c-5 -2 -30 -9 -54 -15 -49 -13 -119 -76 -142 -129 -8 -18
-19 -29 -27 -26 -9 3 -10 0 -4 -13 10 -19 4 -89 -8 -97 -9 -6 13 -131 31 -170
22 -49 32 -81 30 -94 -1 -7 2 -10 8 -7 6 4 17 -7 26 -24 8 -16 19 -30 23 -30
10 0 32 -51 32 -75 0 -12 5 -26 11 -32 6 -6 11 -17 13 -24 4 -24 33 -73 55
-93 25 -23 73 -25 93 -5 31 31 81 112 66 106 -14 -5 -14 -2 0 26 8 18 20 35
26 39 6 4 7 8 3 8 -4 0 4 17 18 37 14 21 25 44 25 51 0 7 4 10 10 7 6 -3 7 1
4 9 -3 9 -1 16 6 16 6 0 8 4 5 10 -3 5 6 27 20 47 14 21 25 45 25 54 0 9 7 19
15 23 8 3 12 12 9 20 -3 8 -1 37 5 63 6 29 6 64 2 85 -6 24 -5 41 3 49 8 9 8
10 -1 5 -8 -4 -15 3 -19 21 -4 15 -16 36 -26 47 -10 11 -18 23 -18 26 0 3 -19
17 -42 30 -24 13 -46 28 -50 34 -4 6 -8 8 -8 4 0 -4 -16 0 -35 8 -31 13 -105
18 -130 9z m163 -57 c78 -37 132 -123 132 -209 -1 -61 -19 -115 -85 -253 -65
-133 -91 -168 -78 -104 4 22 3 29 -5 24 -23 -14 -12 27 24 93 20 36 29 59 20
52 -9 -8 -16 -10 -16 -6 0 11 42 69 57 78 7 4 13 19 13 33 0 14 4 23 8 20 5
-3 9 9 10 27 0 26 -1 28 -8 11 -4 -11 -26 -50 -48 -86 -53 -87 -86 -152 -73
-143 17 10 14 0 -20 -67 l-31 -61 26 5 c18 4 26 1 26 -8 0 -12 -14 -16 -60
-16 -3 -1 -25 2 -49 6 -40 6 -43 5 -31 -10 11 -12 29 -15 84 -12 49 2 70 -1
73 -9 3 -10 -11 -13 -52 -13 -38 0 -54 -4 -49 -11 4 -6 20 -8 40 -4 27 5 36 2
41 -11 4 -10 0 -22 -10 -29 -10 -7 -17 -19 -17 -28 0 -38 -76 -31 -86 8 -3 13
-12 26 -20 29 -26 10 -15 27 14 21 l27 -5 -27 10 c-24 10 -47 55 -34 67 3 3
-17 34 -44 68 -179 234 -132 516 92 554 63 10 98 6 156 -21z"/>
<path d="M1495 1190 c-17 -7 -15 -9 12 -9 17 -1 35 -5 38 -11 3 -5 12 -10 18
-10 7 1 1 10 -12 20 -26 22 -27 22 -56 10z"/>
<path d="M1580 1162 c0 -4 9 -14 20 -22 22 -16 26 -40 8 -58 -6 -6 -9 -15 -5
-18 8 -8 37 21 37 36 0 16 -39 70 -51 70 -5 0 -9 -4 -9 -8z"/>
<path d="M1321 1073 c-17 -25 -31 -50 -31 -55 0 -16 17 -7 28 15 6 12 21 37
32 55 12 17 17 32 12 32 -6 0 -24 -21 -41 -47z"/>
<path d="M1267 1028 c-8 -30 1 -105 14 -113 4 -3 11 4 14 16 4 12 2 24 -3 28
-6 3 -12 27 -14 51 -3 40 -4 42 -11 18z"/>
<path d="M1450 1038 c0 -9 7 -21 15 -28 16 -13 45 -7 45 10 0 6 -5 8 -11 5 -5
-4 -19 1 -30 11 -16 14 -19 15 -19 2z"/>
<path d="M1623 1033 c-4 -10 -15 -27 -25 -37 -10 -11 -18 -27 -18 -35 0 -10
11 -3 30 19 37 44 39 23 4 -30 -15 -22 -25 -43 -22 -46 9 -9 66 86 63 104 -2
9 -4 23 -4 30 -1 18 -21 15 -28 -5z"/>
<path d="M1332 1015 c-15 -18 -20 -50 -7 -50 6 -1 15 14 21 32 12 35 7 42 -14
18z"/>
<path d="M1387 1012 c-22 -25 -28 -110 -6 -96 6 3 9 19 7 35 -4 24 -1 29 16
29 17 0 18 2 6 10 -12 8 -13 11 -1 19 8 5 9 11 3 15 -5 3 -16 -2 -25 -12z"/>
<path d="M1427 978 c-2 -13 -8 -31 -12 -41 -5 -12 -3 -17 6 -15 15 3 15 -4 3
-37 -5 -16 -4 -18 6 -8 7 6 13 36 15 67 2 56 -8 76 -18 34z"/>
<path d="M1483 961 c2 -17 7 -34 11 -38 12 -13 35 -11 40 2 3 9 -2 12 -16 10
-16 -3 -19 0 -15 15 3 11 -1 25 -9 31 -12 10 -14 6 -11 -20z"/>
<path d="M1329 928 c-1 -7 -3 -24 -4 -38 -1 -14 -7 -37 -13 -51 -6 -15 -8 -30
-4 -33 3 -4 14 15 24 41 21 56 21 56 8 48 -7 -4 -9 2 -4 19 3 14 3 26 0 26 -3
0 -7 -6 -7 -12z"/>
<path d="M1537 907 c-73 -127 -108 -199 -103 -215 3 -9 -1 -30 -9 -46 -19 -37
-20 -36 13 -36 25 0 31 7 56 68 16 37 42 90 57 118 16 28 29 55 29 60 -1 15
-49 -66 -86 -144 -20 -41 -38 -71 -41 -68 -3 3 -7 19 -8 36 -2 22 15 62 61
142 35 62 64 113 64 115 0 13 -18 -3 -33 -30z"/>
<path d="M1493 896 c3 -6 -20 -56 -49 -112 -30 -56 -54 -106 -54 -113 0 -23
19 -10 25 18 3 16 28 71 56 122 27 51 49 94 49 94 0 1 -7 2 -15 2 -9 0 -14 -5
-12 -11z"/>
<path d="M1336 810 c-11 -19 -13 -29 -5 -28 6 2 14 -3 17 -11 3 -8 0 -11 -6
-7 -6 4 -5 -12 4 -39 9 -25 20 -47 25 -51 13 -8 11 13 -3 36 -10 15 -10 22 -1
31 9 9 8 18 -4 36 -12 18 -13 27 -4 36 13 13 15 27 3 27 -4 0 -16 -14 -26 -30z"/>
<path d="M1058 1230 c-10 -11 -13 -22 -8 -25 5 -3 7 -11 4 -19 -3 -7 12 -24
34 -39 39 -28 58 -34 47 -17 -3 5 0 7 8 5 20 -8 50 30 42 54 -3 12 -13 21 -21
21 -8 0 -14 5 -14 11 0 5 5 7 12 3 6 -4 8 -3 4 4 -3 6 -14 10 -24 10 -9 0 -28
2 -42 5 -17 4 -30 0 -42 -13z m59 -24 c15 -8 36 -17 46 -20 24 -7 22 -30 -3
-23 -10 3 -21 0 -23 -7 -3 -6 -17 1 -36 18 -47 45 -40 60 16 32z"/>
<path d="M2780 1131 c0 -5 21 -6 48 -4 70 7 74 11 10 12 -32 1 -58 -3 -58 -8z"/>
<path d="M1840 1082 c-56 -22 -63 -32 -44 -53 10 -11 25 -19 36 -19 10 0 18
-4 18 -9 0 -12 66 3 85 19 8 7 15 20 15 30 0 38 -56 54 -110 32z m70 -22 c13
-9 12 -12 -4 -25 -22 -17 -61 -20 -51 -5 4 6 -6 7 -25 4 -19 -4 -30 -2 -30 5
0 6 10 13 23 15 30 7 61 13 67 15 3 0 12 -4 20 -9z"/>
<path d="M1020 1068 c0 -5 -3 -7 -7 -5 -9 5 -34 -18 -32 -30 4 -38 109 -89
133 -65 4 4 13 7 19 7 7 0 13 10 13 22 1 12 -3 20 -7 17 -5 -3 -9 1 -9 9 0 8
-17 23 -37 33 -43 20 -73 25 -73 12z m54 -38 c44 -18 56 -33 38 -44 -13 -8
-102 36 -102 51 0 18 10 16 64 -7z"/>
<path d="M2827 1053 c-15 -4 -16 -7 -3 -25 8 -11 12 -27 9 -34 -7 -18 8 -18
32 0 16 12 17 16 6 30 -7 9 -17 13 -22 10 -5 -3 -6 2 -3 10 3 9 5 15 3 15 -2
-1 -12 -3 -22 -6z"/>
<path d="M2733 1007 c-22 -10 -22 -11 -6 -38 19 -32 21 -33 42 -20 11 7 12 13
4 23 -6 7 -12 20 -14 29 -3 13 -9 14 -26 6z"/>
<path d="M2008 811 c-9 -11 -15 -21 -12 -23 2 -3 6 -24 8 -47 5 -52 17 -66 50
-57 21 5 25 11 21 29 -4 15 1 32 14 49 20 25 20 26 2 47 -23 26 -61 27 -83 2z
m69 -16 c3 -9 -2 -24 -11 -34 -9 -10 -15 -29 -14 -42 2 -16 -2 -24 -12 -24
-21 0 -22 45 -2 68 15 16 14 17 -1 11 -17 -6 -25 15 -10 29 12 13 44 7 50 -8z"/>
<path d="M1808 707 c-5 -10 -7 -25 -4 -32 3 -8 1 -29 -5 -47 -6 -22 -6 -34 1
-36 7 -3 6 -10 -2 -20 -10 -12 -10 -14 0 -8 6 4 12 3 12 -3 0 -17 -22 -24 -31
-10 -5 9 -7 3 -5 -18 3 -20 0 -32 -6 -30 -6 1 -12 -12 -14 -30 -2 -29 1 -33
52 -53 109 -45 181 7 134 96 -12 21 -12 28 -2 31 6 3 12 11 12 19 0 8 5 14 11
14 6 0 9 8 7 18 -3 10 1 27 8 37 19 25 18 30 -10 59 -38 38 -140 46 -158 13z
m85 -13 c34 -9 65 -18 68 -20 9 -5 -35 -94 -51 -104 -10 -6 -11 -15 -2 -37 5
-15 13 -45 16 -67 l5 -38 -32 6 c-18 3 -51 8 -75 12 -47 7 -63 22 -38 36 9 5
16 17 16 28 0 10 12 27 27 38 24 18 26 22 13 37 -13 16 -24 125 -13 125 3 0
33 -7 66 -16z"/>
<path d="M1840 647 c0 -20 5 -24 28 -24 15 0 34 -3 43 -7 12 -5 18 -1 22 14 6
23 2 25 -55 35 -35 5 -38 4 -38 -18z"/>
<path d="M1831 526 c-14 -14 -21 -29 -16 -33 4 -5 10 -2 12 5 3 6 9 10 14 6
10 -6 23 20 17 36 -2 6 -14 0 -27 -14z"/>
<path d="M1868 526 c-3 -16 2 -30 15 -41 26 -22 32 -12 17 25 -17 40 -27 45
-32 16z"/>
<path d="M2101 546 c-11 -13 -11 -20 -3 -28 17 -17 15 -48 -5 -55 -10 -4 -22
2 -33 15 -15 17 -20 19 -34 9 -16 -11 -15 -14 9 -35 31 -27 29 -44 -6 -52 -13
-3 -25 -14 -27 -23 -5 -23 21 -22 43 3 24 27 32 25 53 -9 13 -21 22 -27 32
-21 12 7 11 12 -3 28 -17 18 -17 21 -2 36 20 20 24 20 46 0 11 -10 25 -14 36
-9 17 6 16 8 -4 25 -28 23 -29 47 -3 55 11 3 20 12 20 19 0 24 -14 26 -36 5
-26 -25 -40 -19 -57 23 -11 28 -14 29 -26 14z"/>
<path d="M661 372 l-53 -3 6 -37 c3 -20 6 -58 6 -84 l0 -48 104 0 c58 0 107 4
110 9 3 5 3 43 0 84 l-7 75 -56 4 c-31 2 -80 2 -110 0z m153 -59 c9 -57 7
-103 -4 -103 -5 0 -10 9 -10 21 0 16 -4 19 -20 14 -15 -5 -18 -3 -14 9 3 9 13
16 21 16 8 0 11 5 8 10 -4 6 -11 8 -16 5 -5 -3 -6 1 -3 9 13 34 -8 14 -23 -21
-15 -37 -15 -37 -27 -14 -11 19 -14 20 -19 8 -3 -9 -1 -18 6 -21 7 -2 -1 -5
-16 -5 -16 -1 -26 3 -22 9 3 6 -1 10 -9 10 -9 0 -16 -7 -16 -15 0 -16 18 -18
99 -15 29 1 41 -2 37 -9 -4 -6 -37 -11 -76 -11 l-68 0 -4 60 c-1 33 -1 65 0
70 2 6 41 10 87 10 l82 0 7 -37z"/>
<path d="M672 314 l-23 -24 33 1 c26 0 29 2 14 8 -18 7 -18 8 -2 14 12 5 20
-1 28 -18 8 -18 14 -22 19 -13 5 7 3 16 -4 20 -8 5 -6 8 6 8 9 0 17 7 17 15 0
18 -26 20 -33 3 -4 -10 -6 -10 -6 0 -1 19 -24 13 -49 -14z"/>
<path d="M2059 378 c-6 -14 -3 -58 3 -58 4 0 8 6 8 13 0 6 5 4 11 -5 17 -31
29 -20 15 14 -12 27 -33 48 -37 36z"/>
<path d="M735 111 c-62 -5 -68 -7 -48 -18 17 -10 22 -10 26 0 4 9 6 8 6 -2 1
-10 4 -11 15 -2 10 8 16 9 21 1 3 -5 11 -10 16 -10 6 0 7 5 4 10 -3 6 1 10 9
10 8 0 18 5 21 10 3 6 5 9 3 8 -2 -1 -34 -4 -73 -7z"/>
</g>
</svg>
