<?xml version="1.0" encoding="UTF-8"?>
<svg version="1.1" xmlns="http://www.w3.org/2000/svg" width="200" height="200">
<path d="M0 0 C66 0 132 0 200 0 C200 66 200 132 200 200 C134 200 68 200 0 200 C0 134 0 68 0 0 Z " fill="#FEFEFE" transform="translate(0,0)"/>
<path d="M0 0 C16.5 0 33 0 50 0 C50 16.5 50 33 50 50 C33.5 50 17 50 0 50 C0 33.5 0 17 0 0 Z " fill="#437191" transform="translate(105,105)"/>
<path d="M0 0 C1.24128662 0.00749268 2.48257324 0.01498535 3.76147461 0.02270508 C6.09350952 0.0636731 6.09350952 0.0636731 8.47265625 0.10546875 C13.44328125 0.16734375 18.41390625 0.22921875 23.53515625 0.29296875 C23.53515625 16.79296875 23.53515625 33.29296875 23.53515625 50.29296875 C18.58515625 50.37546875 13.63515625 50.45796875 8.53515625 50.54296875 C6.21677734 50.59759277 6.21677734 50.59759277 3.8515625 50.65332031 C-6.11728579 50.73371425 -12.92489893 49.41402775 -20.46484375 42.29296875 C-25.92617469 35.11521952 -27.625076 28.20016841 -26.46484375 19.29296875 C-24.27968492 12.49361292 -20.59044008 7.05985845 -14.46484375 3.29296875 C-9.37529921 0.78102084 -5.77528405 -0.0718915 0 0 Z " fill="#EA5D59" transform="translate(71.46484375,44.70703125)"/>
<path d="M0 0 C4.764375 -0.0825 9.52875 -0.165 14.4375 -0.25 C16.66391235 -0.30462402 16.66391235 -0.30462402 18.93530273 -0.36035156 C28.20862484 -0.43783232 34.85720421 0.73018138 42.3125 6.3125 C47.58495151 11.58495151 50.08480635 17.2455127 50.3125 24.6875 C50.21732149 32.76577611 46.70816221 39.42156875 41 45 C35.10123478 48.60865637 30.08815553 50.12695424 23.14453125 50.09765625 C21.93385986 50.09515869 20.72318848 50.09266113 19.47583008 50.09008789 C17.93693115 50.08098389 16.39803223 50.07187988 14.8125 50.0625 C9.924375 50.041875 5.03625 50.02125 0 50 C0 33.5 0 17 0 0 Z " fill="#F18D79" transform="translate(45,105)"/>
<path d="M0 0 C6.17193728 3.76277061 9.77799714 9.17668148 12 16 C13.4652128 25.12544813 10.79426342 31.72642066 5.875 39.25 C0.37312307 44.51266489 -5.34103062 47.27014428 -13 47.625 C-20.75161238 47.25635005 -27.0842397 44.39262572 -32.4375 38.75 C-37.03744953 32.71663844 -38.60772639 25.92822826 -38.3515625 18.41796875 C-37.44940134 12.21310478 -33.71242097 6.09024314 -29 2 C-19.70587476 -4.27891883 -10.10139432 -4.94723781 0 0 Z " fill="#06C29A" transform="translate(143,48)"/>
<path d="M0 0 C4.888125 -0.04125 9.77625 -0.0825 14.8125 -0.125 C16.35139893 -0.14320801 17.89029785 -0.16141602 19.47583008 -0.18017578 C20.68650146 -0.1851709 21.89717285 -0.19016602 23.14453125 -0.1953125 C24.38565674 -0.20578613 25.62678223 -0.21625977 26.90551758 -0.22705078 C30 0 30 0 33 2 C32.09644775 1.99476318 31.19289551 1.98952637 30.26196289 1.98413086 C26.92048511 1.96712314 23.57905308 1.95456667 20.23754883 1.94506836 C18.78929927 1.94002899 17.34105483 1.93319747 15.89282227 1.92456055 C13.81525412 1.91247753 11.73775303 1.90676789 9.66015625 1.90234375 C8.40855713 1.89710693 7.15695801 1.89187012 5.86743164 1.88647461 C3.10267706 1.67112965 3.10267706 1.67112965 2 3 C1.9072167 4.38160115 1.88252957 5.76788038 1.88647461 7.15258789 C1.88655014 8.03342545 1.88662567 8.914263 1.88670349 9.8217926 C1.89186478 10.77907761 1.89702606 11.73636261 1.90234375 12.72265625 C1.9037587 13.69786728 1.90517365 14.67307831 1.90663147 15.67784119 C1.91224867 18.80609143 1.92480407 21.93427123 1.9375 25.0625 C1.94251278 27.17773334 1.94707607 29.29296781 1.95117188 31.40820312 C1.96222369 36.60549296 1.97897854 41.80274145 2 47 C6.1625612 47.07453622 10.3247618 47.12878254 14.48779297 47.16479492 C15.90192437 47.17981825 17.31600968 47.20024305 18.72998047 47.22631836 C20.77062397 47.26298954 22.81064792 47.27979036 24.8515625 47.29296875 C26.68968506 47.31653442 26.68968506 47.31653442 28.56494141 47.34057617 C32.33855762 46.96643299 34.70910654 45.82064106 38 44 C38.66 44 39.32 44 40 44 C39.505 42.02 39.505 42.02 39 40 C39.639375 39.71125 40.27875 39.4225 40.9375 39.125 C43.15206079 38.17176549 43.15206079 38.17176549 44 36 C44.66 35.01 45.32 34.02 46 33 C48.27954852 28.44090295 47.61746748 21.70324346 46.50390625 16.828125 C44.26825531 11.11900509 39.89342175 7.44351901 35 4 C35.33 3.34 35.66 2.68 36 2 C42.28258561 6.11563921 47.3056118 10.58013004 49.609375 17.94921875 C51.2659219 26.64608995 49.53632689 33.34942786 44.90234375 40.75390625 C41.12182609 45.86721657 35.85046168 48.04984611 30 50 C27.7161483 50.08378628 25.429899 50.10729915 23.14453125 50.09765625 C21.93385986 50.09515869 20.72318848 50.09266113 19.47583008 50.09008789 C17.93693115 50.08098389 16.39803223 50.07187988 14.8125 50.0625 C9.924375 50.041875 5.03625 50.02125 0 50 C0 33.5 0 17 0 0 Z " fill="#E89384" transform="translate(45,105)"/>
<path d="M0 0 C1.65 0 3.3 0 5 0 C3.68 0.33 2.36 0.66 1 1 C1 16.51 1 32.02 1 48 C8.569375 48.020625 16.13875 48.04125 23.9375 48.0625 C26.32991943 48.071604 28.72233887 48.08070801 31.18725586 48.09008789 C33.07145125 48.09300692 34.95564727 48.09555551 36.83984375 48.09765625 C37.82795044 48.10277222 38.81605713 48.10788818 39.83410645 48.11315918 C41.23481384 48.11334045 41.23481384 48.11334045 42.66381836 48.11352539 C43.88626503 48.11685631 43.88626503 48.11685631 45.13340759 48.12025452 C47.01477856 48.20528245 47.01477856 48.20528245 48 47 C48.1603556 43.97192956 48.25960448 40.96414546 48.31640625 37.93359375 C48.33718735 37.02497086 48.35796844 36.11634796 48.37937927 35.18019104 C48.44497672 32.26604054 48.5038068 29.35179696 48.5625 26.4375 C48.60567554 24.46678709 48.64928951 22.49608374 48.69335938 20.52539062 C48.80066843 15.68369012 48.90190675 10.84189563 49 6 C48.34 5.67 47.68 5.34 47 5 C47 3.68 47 2.36 47 1 C33.47 1 19.94 1 6 1 C6 0.67 6 0.34 6 0 C20.52 0 35.04 0 50 0 C50 16.5 50 33 50 50 C33.5 50 17 50 0 50 C0 33.5 0 17 0 0 Z " fill="#506E80" transform="translate(105,105)"/>
<path d="M0 0 C1.25127686 0.00249756 2.50255371 0.00499512 3.79174805 0.00756836 C6.17840698 0.02122437 6.17840698 0.02122437 8.61328125 0.03515625 C13.66640625 0.05578125 18.71953125 0.07640625 23.92578125 0.09765625 C23.92578125 16.59765625 23.92578125 33.09765625 23.92578125 50.09765625 C16.46984375 50.19046875 16.46984375 50.19046875 8.86328125 50.28515625 C7.30859131 50.31246826 5.75390137 50.33978027 4.15209961 50.36791992 C2.91081299 50.3754126 1.66952637 50.38290527 0.390625 50.390625 C-1.50248413 50.41419067 -1.50248413 50.41419067 -3.43383789 50.43823242 C-7.63561425 50.04513484 -10.30877056 48.93689207 -14.07421875 47.09765625 C-14.07421875 46.76765625 -14.07421875 46.43765625 -14.07421875 46.09765625 C-12.09421875 46.09765625 -10.11421875 46.09765625 -8.07421875 46.09765625 C-8.07421875 46.75765625 -8.07421875 47.41765625 -8.07421875 48.09765625 C2.15578125 48.42765625 12.38578125 48.75765625 22.92578125 49.09765625 C22.92578125 33.58765625 22.92578125 18.07765625 22.92578125 2.09765625 C5.60078125 2.59265625 5.60078125 2.59265625 -12.07421875 3.09765625 C-8.46456182 -0.51200068 -4.86554457 -0.01985937 0 0 Z " fill="#CC6C6A" transform="translate(71.07421875,44.90234375)"/>
<path d="M0 0 C4.888125 -0.04125 9.77625 -0.0825 14.8125 -0.125 C16.35139893 -0.14320801 17.89029785 -0.16141602 19.47583008 -0.18017578 C20.68650146 -0.1851709 21.89717285 -0.19016602 23.14453125 -0.1953125 C24.38565674 -0.20578613 25.62678223 -0.21625977 26.90551758 -0.22705078 C30 0 30 0 33 2 C32.09644775 1.99476318 31.19289551 1.98952637 30.26196289 1.98413086 C26.92048511 1.96712314 23.57905308 1.95456667 20.23754883 1.94506836 C18.78929927 1.94002899 17.34105483 1.93319747 15.89282227 1.92456055 C13.81525412 1.91247753 11.73775303 1.90676789 9.66015625 1.90234375 C8.40855713 1.89710693 7.15695801 1.89187012 5.86743164 1.88647461 C3.10267706 1.67112965 3.10267706 1.67112965 2 3 C1.9072167 4.38160115 1.88252957 5.76788038 1.88647461 7.15258789 C1.88655014 8.03342545 1.88662567 8.914263 1.88670349 9.8217926 C1.89186478 10.77907761 1.89702606 11.73636261 1.90234375 12.72265625 C1.9037587 13.69786728 1.90517365 14.67307831 1.90663147 15.67784119 C1.91224867 18.80609143 1.92480407 21.93427123 1.9375 25.0625 C1.94251278 27.17773334 1.94707607 29.29296781 1.95117188 31.40820312 C1.96222369 36.60549296 1.97897854 41.80274145 2 47 C4.6821281 48.34106405 6.88398032 48.21450419 9.8828125 48.31640625 C11.63271484 48.37924805 11.63271484 48.37924805 13.41796875 48.44335938 C15.25294922 48.50233398 15.25294922 48.50233398 17.125 48.5625 C18.35605469 48.60568359 19.58710937 48.64886719 20.85546875 48.69335938 C23.90352853 48.79968704 26.9516719 48.90171781 30 49 C30 49.33 30 49.66 30 50 C20.1 50 10.2 50 0 50 C0 33.5 0 17 0 0 Z " fill="#D6988B" transform="translate(45,105)"/>
<path d="M0 0 C7.04292557 3.38060428 11.00497148 7.82857674 14.375 14.875 C15.69853562 21.4926781 15.64700914 27.71335329 13 34 C12.67 34 12.34 34 12 34 C12.03480469 32.85402344 12.06960937 31.70804688 12.10546875 30.52734375 C12.13362703 28.99741061 12.16092499 27.46746146 12.1875 25.9375 C12.21263672 25.18533203 12.23777344 24.43316406 12.26367188 23.65820312 C12.35007527 17.00514162 11.09067797 12.35871361 6.5625 7.25 C4.10058007 5.02021938 4.10058007 5.02021938 1.6875 3.3125 C1.130625 2.879375 0.57375 2.44625 0 2 C0 1.34 0 0.68 0 0 Z " fill="#E39C90" transform="translate(80,107)"/>
<path d="M0 0 C0.99 0.33 1.98 0.66 3 1 C-4.97102448 6.93919471 -10.88642948 9.12228008 -21 8 C-23.9961893 6.947903 -26.27526011 5.67676301 -29 4 C-26.3333581 2.66667905 -24.83319697 3.32897967 -22 4 C-22 4.66 -22 5.32 -22 6 C-19.93722893 5.85805236 -17.87478969 5.71127784 -15.8125 5.5625 C-14.66394531 5.48128906 -13.51539063 5.40007812 -12.33203125 5.31640625 C-9.48401829 5.04596188 -6.78789518 4.62478253 -4 4 C-4 3.34 -4 2.68 -4 2 C-2.68 2 -1.36 2 0 2 C0 1.34 0 0.68 0 0 Z " fill="#31BE9E" transform="translate(145,87)"/>
<path d="M0 0 C1.06863281 0.01804688 2.13726562 0.03609375 3.23828125 0.0546875 C4.04652344 0.07789063 4.85476562 0.10109375 5.6875 0.125 C5.6875 0.785 5.6875 1.445 5.6875 2.125 C6.863125 2.0321875 6.863125 2.0321875 8.0625 1.9375 C9.361875 2.0303125 9.361875 2.0303125 10.6875 2.125 C11.6775 3.61 11.6775 3.61 12.6875 5.125 C12.15382812 4.980625 11.62015625 4.83625 11.0703125 4.6875 C3.66523179 2.8426356 -3.84407389 2.1334197 -11.3125 4.125 C-11.3125 3.465 -11.3125 2.805 -11.3125 2.125 C-7.38392246 0.27368517 -4.32474888 -0.09504943 0 0 Z " fill="#DAFCFA" transform="translate(130.3125,42.875)"/>
<path d="M0 0 C-3 1 -3 1 -6 0 C-8.35261357 -0.09511161 -10.70796967 -0.12986976 -13.0625 -0.125 C-14.31160156 -0.12757812 -15.56070313 -0.13015625 -16.84765625 -0.1328125 C-19.90200713 -0.21948276 -19.90200713 -0.21948276 -22 1 C-22.66 0.34 -23.32 -0.32 -24 -1 C-16.21474303 -5.15213705 -7.74760793 -3.14395684 0 0 Z " fill="#34BC9F" transform="translate(143,48)"/>
<path d="M0 0 C0.66 0 1.32 0 2 0 C4.02804186 3.37466165 4.32611113 6.08889024 4.375 10 C4.40335938 11.03125 4.43171875 12.0625 4.4609375 13.125 C3.89754386 16.63904847 2.70192398 17.77865538 0 20 C0.16242188 19.28972656 0.32484375 18.57945313 0.4921875 17.84765625 C1.00361469 14.97972991 1.13309481 12.34758318 1.125 9.4375 C1.12757813 8.50808594 1.13015625 7.57867187 1.1328125 6.62109375 C1.01309964 4.25852524 0.66993233 2.25969237 0 0 Z " fill="#DDFDFC" transform="translate(153,60)"/>
<path d="M0 0 C0.66 0 1.32 0 2 0 C1.83628906 0.67417969 1.67257813 1.34835938 1.50390625 2.04296875 C0.9124642 5.51367906 0.90460954 8.79322124 0.9375 12.3125 C0.94652344 13.56675781 0.95554687 14.82101563 0.96484375 16.11328125 C0.97644531 17.06589844 0.98804687 18.01851562 1 19 C-0.48046875 17.87109375 -0.48046875 17.87109375 -2 16 C-2.36328125 13.22265625 -2.36328125 13.22265625 -2.3125 10.0625 C-2.30863281 9.02222656 -2.30476563 7.98195313 -2.30078125 6.91015625 C-2.00916371 4.08866188 -1.4531841 2.4026749 0 0 Z " fill="#DEFDFB" transform="translate(105,59)"/>
<path d="M0 0 C1.98 0 3.96 0 6 0 C6 0.66 6 1.32 6 2 C8.64 2 11.28 2 14 2 C11 4 11 4 7.5625 3.8125 C4.16237111 3.03703201 2.52267597 2.32086189 0 0 Z " fill="#DE7674" transform="translate(57,91)"/>
<path d="M0 0 C0.66 0.33 1.32 0.66 2 1 C0.02 3.97 0.02 3.97 -2 7 C-2.99 6.01 -3.98 5.02 -5 4 C-3.35 2.68 -1.7 1.36 0 0 Z " fill="#E06E6F" transform="translate(57,48)"/>
</svg>
